G04 Layer: TopLayer*
G04 EasyEDA v6.4.7, 2020-12-03T10:34:31+05:30*
G04 2fbe05cc312c45c2a44f13524b8984d0,b6e8962e620740079bb188d2402746ea,10*
G04 Gerber Generator version 0.2*
G04 Scale: 100 percent, Rotated: No, Reflected: No *
G04 Dimensions in inches *
G04 leading zeros omitted , absolute positions ,2 integer and 4 decimal *
%FSLAX24Y24*%
%MOIN*%
G90*
D02*

%ADD11C,0.020000*%
%ADD12C,0.024000*%
%ADD13C,0.118110*%
%ADD14R,0.066929X0.066929*%
%ADD15C,0.066929*%
%ADD16C,0.074000*%
%ADD17C,0.060000*%
%ADD18C,0.062992*%
%ADD19C,0.074020*%

%LPD*%
G54D11*
G01X695Y13857D02*
G01X7018Y20180D01*
G01X14958Y20180D01*
G01X15639Y19500D01*
G01X25089Y10100D02*
G01X24039Y10100D01*
G01X14639Y19500D01*
G01X22489Y8000D02*
G01X20229Y10259D01*
G01X17639Y10259D01*
G01X17639Y10259D02*
G01X17543Y10357D01*
G01X6125Y10357D01*
G01X695Y4926D01*
G01X695Y4857D01*
G01X5805Y9490D02*
G01X7939Y7357D01*
G01X19282Y7357D01*
G01X22189Y4450D01*
G01X5805Y9490D02*
G01X7939Y7357D01*
G01X19282Y7357D01*
G01X22189Y4450D01*
G54D13*
G01X15639Y2200D03*
G01X17599Y2200D03*
G54D14*
G01X17639Y19500D03*
G54D15*
G01X15639Y19500D03*
G01X14639Y19500D03*
G36*
G01X954Y17964D02*
G01X802Y18115D01*
G01X588Y18115D01*
G01X436Y17964D01*
G01X436Y17749D01*
G01X588Y17598D01*
G01X802Y17598D01*
G01X954Y17749D01*
G01X954Y17964D01*
G37*
G36*
G01X954Y16964D02*
G01X802Y17115D01*
G01X588Y17115D01*
G01X436Y16964D01*
G01X436Y16749D01*
G01X588Y16598D01*
G01X802Y16598D01*
G01X954Y16749D01*
G01X954Y16964D01*
G37*
G36*
G01X954Y15964D02*
G01X802Y16115D01*
G01X588Y16115D01*
G01X436Y15964D01*
G01X436Y15749D01*
G01X588Y15598D01*
G01X802Y15598D01*
G01X954Y15749D01*
G01X954Y15964D01*
G37*
G36*
G01X954Y14964D02*
G01X802Y15115D01*
G01X588Y15115D01*
G01X436Y14964D01*
G01X436Y14749D01*
G01X588Y14598D01*
G01X802Y14598D01*
G01X954Y14749D01*
G01X954Y14964D01*
G37*
G36*
G01X954Y13964D02*
G01X802Y14115D01*
G01X588Y14115D01*
G01X436Y13964D01*
G01X436Y13749D01*
G01X588Y13598D01*
G01X802Y13598D01*
G01X954Y13749D01*
G01X954Y13964D01*
G37*
G36*
G01X954Y12964D02*
G01X802Y13115D01*
G01X588Y13115D01*
G01X436Y12964D01*
G01X436Y12749D01*
G01X588Y12598D01*
G01X802Y12598D01*
G01X954Y12749D01*
G01X954Y12964D01*
G37*
G36*
G01X954Y11964D02*
G01X802Y12115D01*
G01X588Y12115D01*
G01X436Y11964D01*
G01X436Y11749D01*
G01X588Y11598D01*
G01X802Y11598D01*
G01X954Y11749D01*
G01X954Y11964D01*
G37*
G36*
G01X954Y10964D02*
G01X802Y11115D01*
G01X588Y11115D01*
G01X436Y10964D01*
G01X436Y10749D01*
G01X588Y10598D01*
G01X802Y10598D01*
G01X954Y10749D01*
G01X954Y10964D01*
G37*
G36*
G01X954Y9964D02*
G01X802Y10115D01*
G01X588Y10115D01*
G01X436Y9964D01*
G01X436Y9749D01*
G01X588Y9598D01*
G01X802Y9598D01*
G01X954Y9749D01*
G01X954Y9964D01*
G37*
G36*
G01X954Y8964D02*
G01X802Y9115D01*
G01X588Y9115D01*
G01X436Y8964D01*
G01X436Y8749D01*
G01X588Y8598D01*
G01X802Y8598D01*
G01X954Y8749D01*
G01X954Y8964D01*
G37*
G36*
G01X954Y7964D02*
G01X802Y8115D01*
G01X588Y8115D01*
G01X436Y7964D01*
G01X436Y7749D01*
G01X588Y7598D01*
G01X802Y7598D01*
G01X954Y7749D01*
G01X954Y7964D01*
G37*
G36*
G01X954Y6964D02*
G01X802Y7115D01*
G01X588Y7115D01*
G01X436Y6964D01*
G01X436Y6749D01*
G01X588Y6598D01*
G01X802Y6598D01*
G01X954Y6749D01*
G01X954Y6964D01*
G37*
G36*
G01X954Y5964D02*
G01X802Y6115D01*
G01X588Y6115D01*
G01X436Y5964D01*
G01X436Y5749D01*
G01X588Y5598D01*
G01X802Y5598D01*
G01X954Y5749D01*
G01X954Y5964D01*
G37*
G36*
G01X954Y4964D02*
G01X802Y5115D01*
G01X588Y5115D01*
G01X436Y4964D01*
G01X436Y4749D01*
G01X588Y4598D01*
G01X802Y4598D01*
G01X954Y4749D01*
G01X954Y4964D01*
G37*
G36*
G01X954Y3964D02*
G01X802Y4115D01*
G01X588Y4115D01*
G01X436Y3964D01*
G01X436Y3749D01*
G01X588Y3598D01*
G01X802Y3598D01*
G01X954Y3749D01*
G01X954Y3964D01*
G37*
G36*
G01X10954Y17964D02*
G01X10802Y18115D01*
G01X10588Y18115D01*
G01X10436Y17964D01*
G01X10436Y17749D01*
G01X10588Y17598D01*
G01X10802Y17598D01*
G01X10954Y17749D01*
G01X10954Y17964D01*
G37*
G36*
G01X10954Y16964D02*
G01X10802Y17115D01*
G01X10588Y17115D01*
G01X10436Y16964D01*
G01X10436Y16749D01*
G01X10588Y16598D01*
G01X10802Y16598D01*
G01X10954Y16749D01*
G01X10954Y16964D01*
G37*
G36*
G01X10954Y15964D02*
G01X10802Y16115D01*
G01X10588Y16115D01*
G01X10436Y15964D01*
G01X10436Y15749D01*
G01X10588Y15598D01*
G01X10802Y15598D01*
G01X10954Y15749D01*
G01X10954Y15964D01*
G37*
G36*
G01X10954Y14964D02*
G01X10802Y15115D01*
G01X10588Y15115D01*
G01X10436Y14964D01*
G01X10436Y14749D01*
G01X10588Y14598D01*
G01X10802Y14598D01*
G01X10954Y14749D01*
G01X10954Y14964D01*
G37*
G36*
G01X10954Y13964D02*
G01X10802Y14115D01*
G01X10588Y14115D01*
G01X10436Y13964D01*
G01X10436Y13749D01*
G01X10588Y13598D01*
G01X10802Y13598D01*
G01X10954Y13749D01*
G01X10954Y13964D01*
G37*
G36*
G01X10954Y12964D02*
G01X10802Y13115D01*
G01X10588Y13115D01*
G01X10436Y12964D01*
G01X10436Y12749D01*
G01X10588Y12598D01*
G01X10802Y12598D01*
G01X10954Y12749D01*
G01X10954Y12964D01*
G37*
G36*
G01X10954Y11964D02*
G01X10802Y12115D01*
G01X10588Y12115D01*
G01X10436Y11964D01*
G01X10436Y11749D01*
G01X10588Y11598D01*
G01X10802Y11598D01*
G01X10954Y11749D01*
G01X10954Y11964D01*
G37*
G36*
G01X10954Y10964D02*
G01X10802Y11115D01*
G01X10588Y11115D01*
G01X10436Y10964D01*
G01X10436Y10749D01*
G01X10588Y10598D01*
G01X10802Y10598D01*
G01X10954Y10749D01*
G01X10954Y10964D01*
G37*
G36*
G01X10954Y9964D02*
G01X10802Y10115D01*
G01X10588Y10115D01*
G01X10436Y9964D01*
G01X10436Y9749D01*
G01X10588Y9598D01*
G01X10802Y9598D01*
G01X10954Y9749D01*
G01X10954Y9964D01*
G37*
G36*
G01X10954Y8964D02*
G01X10802Y9115D01*
G01X10588Y9115D01*
G01X10436Y8964D01*
G01X10436Y8749D01*
G01X10588Y8598D01*
G01X10802Y8598D01*
G01X10954Y8749D01*
G01X10954Y8964D01*
G37*
G36*
G01X10954Y7964D02*
G01X10802Y8115D01*
G01X10588Y8115D01*
G01X10436Y7964D01*
G01X10436Y7749D01*
G01X10588Y7598D01*
G01X10802Y7598D01*
G01X10954Y7749D01*
G01X10954Y7964D01*
G37*
G36*
G01X10954Y6964D02*
G01X10802Y7115D01*
G01X10588Y7115D01*
G01X10436Y6964D01*
G01X10436Y6749D01*
G01X10588Y6598D01*
G01X10802Y6598D01*
G01X10954Y6749D01*
G01X10954Y6964D01*
G37*
G36*
G01X10954Y5964D02*
G01X10802Y6115D01*
G01X10588Y6115D01*
G01X10436Y5964D01*
G01X10436Y5749D01*
G01X10588Y5598D01*
G01X10802Y5598D01*
G01X10954Y5749D01*
G01X10954Y5964D01*
G37*
G36*
G01X10954Y4964D02*
G01X10802Y5115D01*
G01X10588Y5115D01*
G01X10436Y4964D01*
G01X10436Y4749D01*
G01X10588Y4598D01*
G01X10802Y4598D01*
G01X10954Y4749D01*
G01X10954Y4964D01*
G37*
G36*
G01X10954Y3964D02*
G01X10802Y4115D01*
G01X10588Y4115D01*
G01X10436Y3964D01*
G01X10436Y3749D01*
G01X10588Y3598D01*
G01X10802Y3598D01*
G01X10954Y3749D01*
G01X10954Y3964D01*
G37*
G54D16*
G01X25089Y7100D03*
G01X25089Y10100D03*
G01X22189Y5750D03*
G01X25189Y5750D03*
G01X22189Y4450D03*
G01X25189Y4450D03*
G54D17*
G01X23717Y14200D03*
G01X23717Y12200D03*
G01X23767Y19150D03*
G01X23767Y17150D03*
G54D18*
G01X22489Y8000D03*
G01X22489Y9378D03*
G54D12*
G01X17639Y10259D03*
G01X5805Y9490D03*
G54D16*
G01X23239Y2396D02*
G01X23239Y2003D01*
G54D19*
G01X24239Y2396D02*
G01X24239Y2003D01*
M00*
M02*
