;Layer: Drill PTH
;EasyEDA v6.4.7, 2020-12-03T10:34:31+05:30
;2fbe05cc312c45c2a44f13524b8984d0,b6e8962e620740079bb188d2402746ea,10
;Gerber Generator version 0.2
M48
INCH,LZ,00.0000
;Holesize 1 = 0.012 INCH
T01C0.012
;Holesize 2 = 0.030 INCH
T02C0.030
;Holesize 3 = 0.035 INCH
T03C0.035
;Holesize 4 = 0.035 INCH
T04C0.035
;Holesize 5 = 0.036 INCH
T05C0.036
;Holesize 6 = 0.039 INCH
T06C0.039
;Holesize 7 = 0.043 INCH
T07C0.043
;Holesize 8 = 0.059 INCH
T08C0.059
%
G05
G90
T01
X+017639Y+010259
X+005805Y+009490
T02
X+023239Y+002200
X+024239Y+002200
T03
X+025089Y+007100
X+025089Y+010100
X+022189Y+005750
X+025189Y+005750
X+022189Y+004450
X+025189Y+004450
T04
X+000695Y+017857G85X+000695Y+017857
X+000695Y+016857G85X+000695Y+016857
X+000695Y+015857G85X+000695Y+015857
X+000695Y+014857G85X+000695Y+014857
X+000695Y+013857G85X+000695Y+013857
X+000695Y+012857G85X+000695Y+012857
X+000695Y+011857G85X+000695Y+011857
X+000695Y+010857G85X+000695Y+010857
X+000695Y+009857G85X+000695Y+009857
X+000695Y+008857G85X+000695Y+008857
X+000695Y+007857G85X+000695Y+007857
X+000695Y+006857G85X+000695Y+006857
X+000695Y+005857G85X+000695Y+005857
X+000695Y+004857G85X+000695Y+004857
X+000695Y+003857G85X+000695Y+003857
X+010695Y+017857G85X+010695Y+017857
X+010695Y+016857G85X+010695Y+016857
X+010695Y+015857G85X+010695Y+015857
X+010695Y+014857G85X+010695Y+014857
X+010695Y+013857G85X+010695Y+013857
X+010695Y+012857G85X+010695Y+012857
X+010695Y+011857G85X+010695Y+011857
X+010695Y+010857G85X+010695Y+010857
X+010695Y+009857G85X+010695Y+009857
X+010695Y+008857G85X+010695Y+008857
X+010695Y+007857G85X+010695Y+007857
X+010695Y+006857G85X+010695Y+006857
X+010695Y+005857G85X+010695Y+005857
X+010695Y+004857G85X+010695Y+004857
X+010695Y+003857G85X+010695Y+003857
T05
X+023717Y+014200
X+023717Y+012200
X+023767Y+019150
X+023767Y+017150
T06
X+022489Y+007999
X+022489Y+009377
T07
X+017639Y+019500
X+015639Y+019500
X+014639Y+019500
T08
X+015639Y+002200
X+017599Y+002200
M30
