G04 Layer: TopSilkLayer*
G04 EasyEDA v6.4.7, 2020-12-03T10:34:31+05:30*
G04 2fbe05cc312c45c2a44f13524b8984d0,b6e8962e620740079bb188d2402746ea,10*
G04 Gerber Generator version 0.2*
G04 Scale: 100 percent, Rotated: No, Reflected: No *
G04 Dimensions in inches *
G04 leading zeros omitted , absolute positions ,2 integer and 4 decimal *
%FSLAX24Y24*%
%MOIN*%
G90*
D02*

%ADD10C,0.010000*%
%ADD20C,0.008000*%
%ADD21C,0.007874*%
%ADD22C,0.006000*%
%ADD23C,0.002560*%

%LPD*%
G54D10*
G01X16439Y4400D02*
G01X16239Y4600D01*
G01X16239Y4800D01*
G01X16539Y5100D01*
G01X16539Y5400D01*
G01X16389Y5550D01*
G01X16439Y5500D01*
G01X16539Y5400D02*
G01X16389Y5550D01*
G01X16439Y5500D01*
G01X16239Y4600D02*
G01X16239Y4800D01*
G01X16539Y5100D01*
G01X17539Y16700D02*
G01X17539Y16400D01*
G01X17239Y16700D02*
G01X17239Y16400D01*
G01X16939Y16700D02*
G01X16939Y16400D01*
G01X17839Y16700D02*
G01X17839Y16400D01*
G01X17439Y16400D01*
G01X17039Y16400D01*
G01X16639Y16400D01*
G01X16639Y16500D01*
G01X16639Y16700D01*
G01X16939Y14600D02*
G01X16939Y14900D01*
G01X17239Y14600D02*
G01X17239Y14900D01*
G01X17539Y14600D02*
G01X17539Y14900D01*
G01X16639Y14600D02*
G01X16639Y14900D01*
G01X17039Y14900D01*
G01X17439Y14900D01*
G01X17839Y14900D01*
G01X17839Y14800D01*
G01X17839Y14600D01*
G01X16339Y14900D02*
G01X18139Y14900D01*
G01X18139Y16400D01*
G01X16339Y16400D01*
G01X16339Y14900D01*
G01X19739Y13800D02*
G01X20139Y14200D01*
G01X20439Y11000D02*
G01X20439Y14500D01*
G01X18639Y14500D01*
G01X18639Y11200D01*
G01X20439Y11200D01*
G01X14669Y1200D02*
G01X14669Y3200D01*
G01X18569Y3200D01*
G01X18569Y1200D01*
G01X14669Y1200D01*
G01X12539Y500D02*
G01X20439Y500D01*
G01X20439Y20200D01*
G01X12539Y20200D01*
G01X12539Y500D01*
G01X14569Y600D02*
G01X14569Y3800D01*
G01X18669Y3800D01*
G01X18669Y600D01*
G01X14569Y600D01*
G01X12539Y4200D02*
G01X20439Y4200D01*
G01X20439Y11000D01*
G01X12539Y11000D01*
G01X12539Y4200D01*
G01X18239Y18900D02*
G01X14039Y18900D01*
G01X14039Y20100D01*
G01X18239Y20100D01*
G01X18239Y18900D01*
G01X17139Y18900D02*
G01X17139Y20100D01*
G01X22239Y3650D02*
G01X22239Y1200D01*
G01X25239Y3650D02*
G01X25239Y1200D01*
G01X25239Y3650D02*
G01X22239Y3650D01*
G01X25239Y1200D02*
G01X23239Y1200D01*
G01X23239Y1200D02*
G01X22239Y1200D01*
G01X22739Y1200D02*
G01X22739Y1700D01*
G01X22739Y1700D02*
G01X24739Y1700D01*
G01X24739Y1700D02*
G01X24739Y1200D01*
G54D20*
G01X2195Y20357D02*
G01X2195Y11357D01*
G01X9195Y11357D01*
G01X9195Y20357D01*
G01X3695Y18357D02*
G01X3695Y19857D01*
G01X4195Y19857D01*
G01X4195Y18857D01*
G01X4695Y18857D01*
G01X4695Y19857D01*
G01X5195Y19857D01*
G01X5195Y18857D01*
G01X5695Y18857D01*
G01X5695Y19857D01*
G01X6195Y19857D01*
G01X6195Y18857D01*
G01X6695Y18857D01*
G01X6695Y19857D01*
G01X7695Y19857D01*
G01X11195Y357D02*
G01X7195Y357D01*
G01X4195Y357D01*
G01X195Y357D01*
G01X195Y20357D01*
G01X2195Y20357D01*
G01X9195Y20357D01*
G01X11195Y20357D01*
G01X11195Y357D01*
G01X4195Y357D02*
G01X4195Y1857D01*
G01X7195Y1857D01*
G01X7195Y357D01*
G01X2695Y1857D02*
G01X3695Y1857D01*
G01X3695Y857D01*
G01X2695Y857D01*
G01X2695Y1857D01*
G01X7695Y1857D02*
G01X7695Y857D01*
G01X8695Y857D01*
G01X8695Y1857D01*
G01X7695Y1857D01*
G54D10*
G01X24789Y7600D02*
G01X24789Y9600D01*
G01X24789Y9600D02*
G01X25089Y9600D01*
G01X25089Y9600D02*
G01X25389Y9600D01*
G01X25389Y9600D02*
G01X25389Y7600D01*
G01X25389Y7600D02*
G01X25089Y7600D01*
G01X25089Y7600D02*
G01X24789Y7600D01*
G01X25089Y9600D02*
G01X25089Y9700D01*
G01X25089Y7600D02*
G01X25089Y7500D01*
G01X22689Y6050D02*
G01X24689Y6050D01*
G01X24689Y6050D02*
G01X24689Y5750D01*
G01X24689Y5750D02*
G01X24689Y5450D01*
G01X24689Y5450D02*
G01X22689Y5450D01*
G01X22689Y5450D02*
G01X22689Y5750D01*
G01X22689Y5750D02*
G01X22689Y6050D01*
G01X24689Y5750D02*
G01X24789Y5750D01*
G01X22689Y5750D02*
G01X22589Y5750D01*
G01X22689Y4750D02*
G01X24689Y4750D01*
G01X24689Y4750D02*
G01X24689Y4450D01*
G01X24689Y4450D02*
G01X24689Y4150D01*
G01X24689Y4150D02*
G01X22689Y4150D01*
G01X22689Y4150D02*
G01X22689Y4450D01*
G01X22689Y4450D02*
G01X22689Y4750D01*
G01X24689Y4450D02*
G01X24789Y4450D01*
G01X22689Y4450D02*
G01X22589Y4450D01*
G01X22339Y11200D02*
G01X22339Y15136D01*
G01X25095Y15136D01*
G01X25095Y11200D01*
G01X21552Y11200D01*
G01X21552Y15136D01*
G01X22339Y15136D01*
G01X22339Y13168D02*
G01X21552Y13168D01*
G01X24504Y15136D02*
G01X24308Y15334D01*
G01X24898Y15334D01*
G01X24701Y15136D01*
G01X24702Y15136D01*
G01X22389Y16150D02*
G01X22389Y20086D01*
G01X25145Y20086D01*
G01X25145Y16150D01*
G01X21602Y16150D01*
G01X21602Y20086D01*
G01X22389Y20086D01*
G01X22389Y18118D02*
G01X21602Y18118D01*
G01X24554Y20086D02*
G01X24358Y20284D01*
G01X24948Y20284D01*
G01X24751Y20086D01*
G01X24752Y20086D01*
G01X22779Y9797D02*
G01X23309Y9797D01*
G01X23049Y9547D02*
G01X23049Y10037D01*
G54D22*
G01X25384Y12100D02*
G01X25956Y12100D01*
G01X25956Y12100D02*
G01X25956Y12426D01*
G01X25384Y12771D02*
G01X25411Y12715D01*
G01X25465Y12661D01*
G01X25520Y12634D01*
G01X25602Y12607D01*
G01X25738Y12607D01*
G01X25820Y12634D01*
G01X25874Y12661D01*
G01X25929Y12715D01*
G01X25956Y12771D01*
G01X25956Y12880D01*
G01X25929Y12934D01*
G01X25874Y12988D01*
G01X25820Y13015D01*
G01X25738Y13044D01*
G01X25602Y13044D01*
G01X25520Y13015D01*
G01X25465Y12988D01*
G01X25411Y12934D01*
G01X25384Y12880D01*
G01X25384Y12771D01*
G01X25384Y13442D02*
G01X25956Y13223D01*
G01X25384Y13442D02*
G01X25956Y13659D01*
G01X25765Y13305D02*
G01X25765Y13578D01*
G01X25384Y13840D02*
G01X25956Y13840D01*
G01X25384Y13840D02*
G01X25384Y14030D01*
G01X25411Y14113D01*
G01X25465Y14167D01*
G01X25520Y14194D01*
G01X25602Y14221D01*
G01X25738Y14221D01*
G01X25820Y14194D01*
G01X25874Y14167D01*
G01X25929Y14113D01*
G01X25956Y14030D01*
G01X25956Y13840D01*
G01X25334Y17167D02*
G01X25906Y16950D01*
G01X25334Y17167D02*
G01X25906Y17386D01*
G01X25715Y17032D02*
G01X25715Y17305D01*
G01X25470Y17975D02*
G01X25415Y17948D01*
G01X25361Y17894D01*
G01X25334Y17838D01*
G01X25334Y17730D01*
G01X25361Y17675D01*
G01X25415Y17621D01*
G01X25470Y17594D01*
G01X25552Y17565D01*
G01X25688Y17565D01*
G01X25770Y17594D01*
G01X25824Y17621D01*
G01X25879Y17675D01*
G01X25906Y17730D01*
G01X25906Y17838D01*
G01X25879Y17894D01*
G01X25824Y17948D01*
G01X25770Y17975D01*
G01X25334Y18575D02*
G01X25906Y18575D01*
G01X25334Y18755D02*
G01X25906Y18755D01*
G01X25334Y18755D02*
G01X25906Y19136D01*
G01X25334Y19136D02*
G01X25906Y19136D01*
G01X15939Y20903D02*
G01X15939Y20596D01*
G01X15959Y20536D01*
G01X16000Y20494D01*
G01X16062Y20475D01*
G01X16103Y20475D01*
G01X16164Y20494D01*
G01X16205Y20536D01*
G01X16225Y20596D01*
G01X16225Y20903D01*
G01X16381Y20802D02*
G01X16381Y20821D01*
G01X16401Y20863D01*
G01X16422Y20884D01*
G01X16463Y20903D01*
G01X16544Y20903D01*
G01X16585Y20884D01*
G01X16606Y20863D01*
G01X16626Y20821D01*
G01X16626Y20780D01*
G01X16606Y20740D01*
G01X16565Y20678D01*
G01X16360Y20475D01*
G01X16647Y20475D01*
G54D20*
G01X15017Y4700D02*
G01X15581Y4700D01*
G01X15581Y4700D02*
G01X15581Y5021D01*
G01X17439Y4700D02*
G01X18003Y4700D01*
G01X17439Y4700D02*
G01X18003Y5076D01*
G01X17439Y5076D02*
G01X18003Y5076D01*
G01X16040Y5990D02*
G01X16803Y5700D01*
G01X16040Y5990D02*
G01X16803Y6282D01*
G01X16549Y5809D02*
G01X16549Y6173D01*
G01X16220Y7067D02*
G01X16149Y7030D01*
G01X16075Y6957D01*
G01X16040Y6884D01*
G01X16040Y6740D01*
G01X16075Y6667D01*
G01X16149Y6594D01*
G01X16220Y6557D01*
G01X16330Y6521D01*
G01X16511Y6521D01*
G01X16620Y6557D01*
G01X16694Y6594D01*
G01X16766Y6667D01*
G01X16803Y6740D01*
G01X16803Y6884D01*
G01X16766Y6957D01*
G01X16694Y7030D01*
G01X16620Y7067D01*

%LPD*%
G36*
G01X18441Y10273D02*
G01X18160Y10273D01*
G01X18160Y10238D01*
G01X18252Y10228D01*
G01X18253Y10207D01*
G01X18253Y9700D01*
G01X18252Y9657D01*
G01X18160Y9646D01*
G01X18160Y9613D01*
G01X18463Y9613D01*
G01X18495Y9617D01*
G01X18523Y9621D01*
G01X18549Y9628D01*
G01X18573Y9636D01*
G01X18595Y9646D01*
G01X18614Y9657D01*
G01X18630Y9669D01*
G01X18645Y9682D01*
G01X18657Y9696D01*
G01X18668Y9711D01*
G01X18676Y9726D01*
G01X18682Y9742D01*
G01X18687Y9759D01*
G01X18690Y9776D01*
G01X18690Y9792D01*
G01X18689Y9812D01*
G01X18686Y9832D01*
G01X18680Y9850D01*
G01X18671Y9867D01*
G01X18660Y9883D01*
G01X18646Y9898D01*
G01X18629Y9912D01*
G01X18609Y9924D01*
G01X18587Y9935D01*
G01X18561Y9944D01*
G01X18532Y9952D01*
G01X18500Y9957D01*
G01X18527Y9964D01*
G01X18551Y9972D01*
G01X18572Y9981D01*
G01X18591Y9992D01*
G01X18607Y10004D01*
G01X18621Y10017D01*
G01X18632Y10031D01*
G01X18642Y10046D01*
G01X18649Y10062D01*
G01X18654Y10078D01*
G01X18656Y10094D01*
G01X18657Y10111D01*
G01X18656Y10134D01*
G01X18651Y10156D01*
G01X18643Y10176D01*
G01X18633Y10195D01*
G01X18619Y10212D01*
G01X18602Y10227D01*
G01X18583Y10240D01*
G01X18560Y10252D01*
G01X18535Y10261D01*
G01X18506Y10267D01*
G01X18475Y10271D01*
G01X18441Y10273D01*
G37*

%LPC*%
G36*
G01X18400Y9934D02*
G01X18343Y9934D01*
G01X18343Y9835D01*
G01X18344Y9811D01*
G01X18344Y9719D01*
G01X18345Y9675D01*
G01X18345Y9653D01*
G01X18440Y9653D01*
G01X18467Y9657D01*
G01X18491Y9661D01*
G01X18513Y9669D01*
G01X18533Y9678D01*
G01X18550Y9688D01*
G01X18564Y9701D01*
G01X18576Y9715D01*
G01X18585Y9732D01*
G01X18591Y9750D01*
G01X18595Y9770D01*
G01X18596Y9792D01*
G01X18595Y9814D01*
G01X18591Y9835D01*
G01X18585Y9854D01*
G01X18576Y9871D01*
G01X18564Y9885D01*
G01X18550Y9898D01*
G01X18532Y9909D01*
G01X18512Y9918D01*
G01X18489Y9925D01*
G01X18462Y9930D01*
G01X18433Y9932D01*
G01X18400Y9934D01*
G37*
G36*
G01X18415Y10234D02*
G01X18345Y10234D01*
G01X18345Y10191D01*
G01X18344Y10169D01*
G01X18344Y10083D01*
G01X18343Y10061D01*
G01X18343Y9975D01*
G01X18425Y9975D01*
G01X18450Y9978D01*
G01X18473Y9982D01*
G01X18493Y9989D01*
G01X18511Y9997D01*
G01X18527Y10007D01*
G01X18540Y10019D01*
G01X18550Y10033D01*
G01X18558Y10049D01*
G01X18564Y10067D01*
G01X18567Y10086D01*
G01X18568Y10109D01*
G01X18567Y10130D01*
G01X18564Y10148D01*
G01X18559Y10165D01*
G01X18552Y10180D01*
G01X18542Y10193D01*
G01X18531Y10204D01*
G01X18517Y10213D01*
G01X18501Y10221D01*
G01X18483Y10226D01*
G01X18462Y10230D01*
G01X18440Y10233D01*
G01X18415Y10234D01*
G37*

%LPD*%
G36*
G01X17922Y10273D02*
G01X17909Y10282D01*
G01X17706Y10228D01*
G01X17706Y10194D01*
G01X17838Y10207D01*
G01X17838Y9742D01*
G01X17837Y9722D01*
G01X17837Y9682D01*
G01X17836Y9663D01*
G01X17695Y9644D01*
G01X17695Y9613D01*
G01X18059Y9613D01*
G01X18059Y9644D01*
G01X17920Y9663D01*
G01X17920Y9762D01*
G01X17919Y9801D01*
G01X17919Y10130D01*
G01X17922Y10273D01*
G37*

%LPD*%
G36*
G01X16934Y10273D02*
G01X16921Y10282D01*
G01X16718Y10228D01*
G01X16718Y10194D01*
G01X16849Y10207D01*
G01X16849Y9682D01*
G01X16848Y9663D01*
G01X16707Y9644D01*
G01X16707Y9613D01*
G01X17071Y9613D01*
G01X17071Y9644D01*
G01X16932Y9663D01*
G01X16932Y9702D01*
G01X16931Y9722D01*
G01X16931Y9762D01*
G01X16930Y9801D01*
G01X16930Y10130D01*
G01X16934Y10273D01*
G37*

%LPD*%
G36*
G01X16607Y10273D02*
G01X16066Y10273D01*
G01X16058Y10096D01*
G01X16108Y10096D01*
G01X16135Y10228D01*
G01X16290Y10228D01*
G01X16291Y10164D01*
G01X16291Y9679D01*
G01X16290Y9657D01*
G01X16188Y9646D01*
G01X16188Y9613D01*
G01X16485Y9613D01*
G01X16485Y9646D01*
G01X16383Y9657D01*
G01X16382Y9722D01*
G01X16382Y9809D01*
G01X16381Y9831D01*
G01X16381Y10055D01*
G01X16382Y10076D01*
G01X16382Y10164D01*
G01X16383Y10228D01*
G01X16538Y10228D01*
G01X16566Y10096D01*
G01X16614Y10096D01*
G01X16607Y10273D01*
G37*

%LPD*%
G36*
G01X15759Y10273D02*
G01X15494Y10273D01*
G01X15494Y10238D01*
G01X15586Y10228D01*
G01X15587Y10185D01*
G01X15588Y10163D01*
G01X15588Y9721D01*
G01X15587Y9700D01*
G01X15587Y9678D01*
G01X15586Y9657D01*
G01X15494Y9646D01*
G01X15494Y9613D01*
G01X15773Y9613D01*
G01X15773Y9646D01*
G01X15679Y9657D01*
G01X15679Y9768D01*
G01X15678Y9795D01*
G01X15678Y9876D01*
G01X15730Y9876D01*
G01X15766Y9878D01*
G01X15799Y9881D01*
G01X15830Y9886D01*
G01X15857Y9892D01*
G01X15883Y9901D01*
G01X15905Y9911D01*
G01X15925Y9923D01*
G01X15943Y9936D01*
G01X15958Y9950D01*
G01X15972Y9965D01*
G01X15982Y9982D01*
G01X15991Y9999D01*
G01X15998Y10017D01*
G01X16003Y10037D01*
G01X16005Y10056D01*
G01X16006Y10076D01*
G01X16005Y10098D01*
G01X16003Y10119D01*
G01X15998Y10138D01*
G01X15991Y10157D01*
G01X15982Y10174D01*
G01X15972Y10190D01*
G01X15959Y10205D01*
G01X15945Y10218D01*
G01X15928Y10230D01*
G01X15910Y10241D01*
G01X15890Y10251D01*
G01X15868Y10258D01*
G01X15843Y10265D01*
G01X15817Y10269D01*
G01X15789Y10271D01*
G01X15759Y10273D01*
G37*

%LPC*%
G36*
G01X15742Y10234D02*
G01X15679Y10234D01*
G01X15679Y10101D01*
G01X15678Y10079D01*
G01X15678Y9915D01*
G01X15741Y9915D01*
G01X15771Y9917D01*
G01X15797Y9921D01*
G01X15820Y9927D01*
G01X15841Y9936D01*
G01X15858Y9947D01*
G01X15874Y9960D01*
G01X15886Y9976D01*
G01X15896Y9992D01*
G01X15904Y10011D01*
G01X15909Y10032D01*
G01X15912Y10053D01*
G01X15913Y10076D01*
G01X15912Y10101D01*
G01X15909Y10123D01*
G01X15903Y10143D01*
G01X15895Y10162D01*
G01X15885Y10178D01*
G01X15872Y10192D01*
G01X15857Y10205D01*
G01X15839Y10215D01*
G01X15819Y10223D01*
G01X15796Y10229D01*
G01X15771Y10232D01*
G01X15742Y10234D01*
G37*

%LPD*%
G36*
G01X14779Y10273D02*
G01X14599Y10273D01*
G01X14599Y10238D01*
G01X14689Y10228D01*
G01X14688Y9659D01*
G01X14599Y9646D01*
G01X14599Y9613D01*
G01X14820Y9613D01*
G01X14820Y9646D01*
G01X14734Y9659D01*
G01X14734Y9994D01*
G01X14733Y10016D01*
G01X14733Y10044D01*
G01X14732Y10076D01*
G01X14729Y10178D01*
G01X14959Y9613D01*
G01X15002Y9613D01*
G01X15224Y10180D01*
G01X15223Y9915D01*
G01X15223Y9721D01*
G01X15222Y9700D01*
G01X15222Y9678D01*
G01X15221Y9657D01*
G01X15136Y9646D01*
G01X15136Y9613D01*
G01X15404Y9613D01*
G01X15404Y9646D01*
G01X15313Y9657D01*
G01X15312Y9722D01*
G01X15312Y9809D01*
G01X15311Y9831D01*
G01X15311Y10055D01*
G01X15312Y10076D01*
G01X15312Y10164D01*
G01X15313Y10228D01*
G01X15405Y10238D01*
G01X15405Y10273D01*
G01X15215Y10273D01*
G01X15002Y9726D01*
G01X14779Y10273D01*
G37*

%LPD*%
G36*
G01X14520Y10273D02*
G01X14059Y10273D01*
G01X14050Y10096D01*
G01X14103Y10096D01*
G01X14133Y10228D01*
G01X14419Y10228D01*
G01X14039Y9646D01*
G01X14039Y9613D01*
G01X14534Y9613D01*
G01X14540Y9790D01*
G01X14488Y9790D01*
G01X14456Y9655D01*
G01X14141Y9655D01*
G01X14520Y10238D01*
G01X14520Y10273D01*
G37*

%LPD*%
G36*
G01X17392Y10285D02*
G01X17376Y10286D01*
G01X17361Y10285D01*
G01X17345Y10283D01*
G01X17329Y10279D01*
G01X17314Y10274D01*
G01X17299Y10267D01*
G01X17285Y10259D01*
G01X17271Y10249D01*
G01X17257Y10237D01*
G01X17245Y10224D01*
G01X17233Y10209D01*
G01X17221Y10192D01*
G01X17211Y10173D01*
G01X17202Y10152D01*
G01X17193Y10129D01*
G01X17186Y10104D01*
G01X17180Y10077D01*
G01X17175Y10048D01*
G01X17171Y10017D01*
G01X17169Y9983D01*
G01X17168Y9948D01*
G01X17169Y9911D01*
G01X17171Y9876D01*
G01X17175Y9844D01*
G01X17180Y9813D01*
G01X17186Y9786D01*
G01X17193Y9760D01*
G01X17202Y9736D01*
G01X17211Y9715D01*
G01X17221Y9695D01*
G01X17233Y9678D01*
G01X17245Y9662D01*
G01X17257Y9648D01*
G01X17285Y9626D01*
G01X17299Y9618D01*
G01X17314Y9611D01*
G01X17329Y9606D01*
G01X17345Y9602D01*
G01X17361Y9600D01*
G01X17392Y9600D01*
G01X17407Y9602D01*
G01X17422Y9606D01*
G01X17437Y9611D01*
G01X17452Y9618D01*
G01X17466Y9626D01*
G01X17480Y9637D01*
G01X17493Y9648D01*
G01X17506Y9662D01*
G01X17518Y9678D01*
G01X17529Y9695D01*
G01X17539Y9715D01*
G01X17548Y9736D01*
G01X17557Y9760D01*
G01X17564Y9786D01*
G01X17570Y9813D01*
G01X17575Y9844D01*
G01X17578Y9876D01*
G01X17581Y9911D01*
G01X17581Y9983D01*
G01X17578Y10017D01*
G01X17575Y10048D01*
G01X17570Y10077D01*
G01X17564Y10104D01*
G01X17557Y10129D01*
G01X17548Y10152D01*
G01X17539Y10173D01*
G01X17529Y10192D01*
G01X17518Y10209D01*
G01X17506Y10224D01*
G01X17493Y10237D01*
G01X17480Y10249D01*
G01X17466Y10259D01*
G01X17452Y10267D01*
G01X17437Y10274D01*
G01X17422Y10279D01*
G01X17407Y10283D01*
G01X17392Y10285D01*
G37*

%LPC*%
G36*
G01X17388Y10246D02*
G01X17365Y10246D01*
G01X17353Y10243D01*
G01X17342Y10239D01*
G01X17331Y10233D01*
G01X17320Y10225D01*
G01X17310Y10214D01*
G01X17301Y10201D01*
G01X17292Y10186D01*
G01X17284Y10167D01*
G01X17277Y10146D01*
G01X17271Y10122D01*
G01X17265Y10094D01*
G01X17261Y10063D01*
G01X17258Y10028D01*
G01X17256Y9990D01*
G01X17255Y9948D01*
G01X17256Y9903D01*
G01X17258Y9863D01*
G01X17261Y9828D01*
G01X17265Y9795D01*
G01X17271Y9767D01*
G01X17277Y9741D01*
G01X17284Y9719D01*
G01X17292Y9700D01*
G01X17301Y9684D01*
G01X17310Y9671D01*
G01X17320Y9660D01*
G01X17331Y9651D01*
G01X17342Y9645D01*
G01X17353Y9641D01*
G01X17365Y9638D01*
G01X17388Y9638D01*
G01X17399Y9641D01*
G01X17409Y9645D01*
G01X17420Y9651D01*
G01X17430Y9660D01*
G01X17440Y9671D01*
G01X17449Y9684D01*
G01X17457Y9701D01*
G01X17465Y9720D01*
G01X17472Y9742D01*
G01X17478Y9767D01*
G01X17484Y9796D01*
G01X17488Y9828D01*
G01X17491Y9864D01*
G01X17493Y9904D01*
G01X17493Y9990D01*
G01X17491Y10028D01*
G01X17488Y10063D01*
G01X17484Y10094D01*
G01X17478Y10122D01*
G01X17472Y10146D01*
G01X17465Y10167D01*
G01X17457Y10186D01*
G01X17449Y10201D01*
G01X17440Y10214D01*
G01X17430Y10225D01*
G01X17420Y10233D01*
G01X17409Y10239D01*
G01X17399Y10243D01*
G01X17388Y10246D01*
G37*

%LPD*%
G36*
G01X16227Y8792D02*
G01X16200Y8798D01*
G01X16175Y8792D01*
G01X16154Y8778D01*
G01X16140Y8756D01*
G01X16134Y8730D01*
G01X16140Y8705D01*
G01X16154Y8683D01*
G01X16175Y8669D01*
G01X16200Y8663D01*
G01X16227Y8669D01*
G01X16249Y8683D01*
G01X16263Y8705D01*
G01X16268Y8730D01*
G01X16263Y8756D01*
G01X16249Y8778D01*
G01X16227Y8792D01*
G37*

%LPD*%
G36*
G01X18085Y8976D02*
G01X18027Y8976D01*
G01X17818Y8359D01*
G01X17738Y8346D01*
G01X17738Y8313D01*
G01X17957Y8313D01*
G01X17957Y8346D01*
G01X17861Y8359D01*
G01X17918Y8532D01*
G01X18146Y8532D01*
G01X18204Y8359D01*
G01X18107Y8346D01*
G01X18107Y8313D01*
G01X18375Y8313D01*
G01X18375Y8346D01*
G01X18297Y8355D01*
G01X18085Y8976D01*
G37*

%LPC*%
G36*
G01X18134Y8569D02*
G01X18031Y8876D01*
G01X17930Y8569D01*
G01X18134Y8569D01*
G37*

%LPD*%
G36*
G01X17231Y8792D02*
G01X17208Y8794D01*
G01X17186Y8792D01*
G01X17163Y8787D01*
G01X17141Y8779D01*
G01X17118Y8769D01*
G01X17097Y8756D01*
G01X17076Y8740D01*
G01X17056Y8723D01*
G01X17037Y8703D01*
G01X17028Y8784D01*
G01X17015Y8792D01*
G01X16876Y8738D01*
G01X16876Y8709D01*
G01X16955Y8701D01*
G01X16957Y8671D01*
G01X16957Y8394D01*
G01X16956Y8373D01*
G01X16956Y8353D01*
G01X16883Y8344D01*
G01X16883Y8313D01*
G01X17109Y8313D01*
G01X17109Y8344D01*
G01X17041Y8353D01*
G01X17041Y8394D01*
G01X17040Y8416D01*
G01X17040Y8481D01*
G01X17039Y8501D01*
G01X17039Y8665D01*
G01X17058Y8682D01*
G01X17076Y8695D01*
G01X17092Y8706D01*
G01X17109Y8715D01*
G01X17125Y8722D01*
G01X17141Y8727D01*
G01X17157Y8730D01*
G01X17173Y8730D01*
G01X17193Y8729D01*
G01X17210Y8724D01*
G01X17224Y8716D01*
G01X17235Y8704D01*
G01X17244Y8688D01*
G01X17250Y8667D01*
G01X17253Y8642D01*
G01X17254Y8611D01*
G01X17254Y8394D01*
G01X17253Y8373D01*
G01X17253Y8353D01*
G01X17178Y8344D01*
G01X17178Y8313D01*
G01X17405Y8313D01*
G01X17405Y8344D01*
G01X17337Y8353D01*
G01X17337Y8373D01*
G01X17336Y8394D01*
G01X17336Y8415D01*
G01X17335Y8437D01*
G01X17335Y8480D01*
G01X17334Y8501D01*
G01X17334Y8653D01*
G01X17332Y8665D01*
G01X17351Y8681D01*
G01X17370Y8695D01*
G01X17387Y8707D01*
G01X17404Y8715D01*
G01X17420Y8722D01*
G01X17436Y8727D01*
G01X17452Y8730D01*
G01X17467Y8730D01*
G01X17487Y8729D01*
G01X17504Y8725D01*
G01X17518Y8717D01*
G01X17530Y8706D01*
G01X17539Y8690D01*
G01X17545Y8669D01*
G01X17549Y8644D01*
G01X17550Y8613D01*
G01X17550Y8437D01*
G01X17549Y8415D01*
G01X17549Y8373D01*
G01X17548Y8353D01*
G01X17475Y8344D01*
G01X17475Y8313D01*
G01X17701Y8313D01*
G01X17701Y8344D01*
G01X17631Y8353D01*
G01X17631Y8480D01*
G01X17630Y8501D01*
G01X17630Y8623D01*
G01X17629Y8651D01*
G01X17627Y8677D01*
G01X17622Y8700D01*
G01X17616Y8721D01*
G01X17607Y8738D01*
G01X17597Y8753D01*
G01X17586Y8766D01*
G01X17573Y8776D01*
G01X17558Y8784D01*
G01X17542Y8789D01*
G01X17524Y8792D01*
G01X17504Y8794D01*
G01X17481Y8792D01*
G01X17457Y8788D01*
G01X17434Y8781D01*
G01X17411Y8771D01*
G01X17389Y8758D01*
G01X17367Y8742D01*
G01X17346Y8723D01*
G01X17325Y8701D01*
G01X17318Y8723D01*
G01X17309Y8742D01*
G01X17297Y8759D01*
G01X17284Y8771D01*
G01X17268Y8781D01*
G01X17250Y8788D01*
G01X17231Y8792D01*
G37*

%LPD*%
G36*
G01X16622Y8984D02*
G01X16591Y8986D01*
G01X16567Y8984D01*
G01X16544Y8982D01*
G01X16521Y8976D01*
G01X16500Y8969D01*
G01X16479Y8960D01*
G01X16461Y8949D01*
G01X16444Y8935D01*
G01X16429Y8920D01*
G01X16416Y8902D01*
G01X16406Y8883D01*
G01X16398Y8861D01*
G01X16393Y8838D01*
G01X16402Y8825D01*
G01X16413Y8815D01*
G01X16426Y8809D01*
G01X16441Y8807D01*
G01X16459Y8810D01*
G01X16473Y8820D01*
G01X16485Y8839D01*
G01X16495Y8869D01*
G01X16515Y8940D01*
G01X16530Y8944D01*
G01X16544Y8945D01*
G01X16557Y8946D01*
G01X16568Y8946D01*
G01X16595Y8944D01*
G01X16618Y8936D01*
G01X16638Y8925D01*
G01X16656Y8908D01*
G01X16670Y8888D01*
G01X16680Y8864D01*
G01X16686Y8837D01*
G01X16688Y8807D01*
G01X16687Y8787D01*
G01X16685Y8767D01*
G01X16680Y8747D01*
G01X16673Y8727D01*
G01X16665Y8707D01*
G01X16654Y8686D01*
G01X16641Y8665D01*
G01X16627Y8642D01*
G01X16610Y8619D01*
G01X16591Y8595D01*
G01X16570Y8569D01*
G01X16547Y8542D01*
G01X16531Y8524D01*
G01X16514Y8504D01*
G01X16496Y8484D01*
G01X16477Y8463D01*
G01X16458Y8441D01*
G01X16438Y8419D01*
G01X16419Y8396D01*
G01X16398Y8373D01*
G01X16398Y8313D01*
G01X16803Y8313D01*
G01X16803Y8388D01*
G01X16461Y8388D01*
G01X16478Y8406D01*
G01X16495Y8423D01*
G01X16511Y8440D01*
G01X16527Y8456D01*
G01X16541Y8471D01*
G01X16555Y8485D01*
G01X16567Y8498D01*
G01X16577Y8509D01*
G01X16604Y8536D01*
G01X16628Y8562D01*
G01X16650Y8586D01*
G01X16670Y8609D01*
G01X16688Y8630D01*
G01X16705Y8649D01*
G01X16719Y8668D01*
G01X16732Y8686D01*
G01X16742Y8702D01*
G01X16752Y8719D01*
G01X16759Y8734D01*
G01X16765Y8750D01*
G01X16770Y8765D01*
G01X16773Y8780D01*
G01X16775Y8796D01*
G01X16775Y8811D01*
G01X16774Y8836D01*
G01X16771Y8860D01*
G01X16765Y8882D01*
G01X16756Y8902D01*
G01X16745Y8920D01*
G01X16731Y8937D01*
G01X16715Y8951D01*
G01X16696Y8963D01*
G01X16674Y8973D01*
G01X16649Y8980D01*
G01X16622Y8984D01*
G37*

%LPD*%
G36*
G01X15754Y8976D02*
G01X15696Y8976D01*
G01X15487Y8359D01*
G01X15407Y8346D01*
G01X15407Y8313D01*
G01X15626Y8313D01*
G01X15626Y8346D01*
G01X15530Y8359D01*
G01X15587Y8532D01*
G01X15815Y8532D01*
G01X15873Y8359D01*
G01X15776Y8346D01*
G01X15776Y8313D01*
G01X16044Y8313D01*
G01X16044Y8346D01*
G01X15966Y8355D01*
G01X15754Y8976D01*
G37*

%LPC*%
G36*
G01X15803Y8569D02*
G01X15700Y8876D01*
G01X15599Y8569D01*
G01X15803Y8569D01*
G37*

%LPD*%
G36*
G01X14900Y8792D02*
G01X14878Y8794D01*
G01X14855Y8792D01*
G01X14833Y8787D01*
G01X14810Y8779D01*
G01X14788Y8769D01*
G01X14766Y8756D01*
G01X14745Y8740D01*
G01X14725Y8723D01*
G01X14706Y8703D01*
G01X14698Y8784D01*
G01X14684Y8792D01*
G01X14545Y8738D01*
G01X14545Y8709D01*
G01X14624Y8701D01*
G01X14626Y8671D01*
G01X14626Y8394D01*
G01X14625Y8373D01*
G01X14625Y8353D01*
G01X14552Y8344D01*
G01X14552Y8313D01*
G01X14778Y8313D01*
G01X14778Y8344D01*
G01X14710Y8353D01*
G01X14710Y8394D01*
G01X14709Y8416D01*
G01X14709Y8481D01*
G01X14708Y8501D01*
G01X14708Y8665D01*
G01X14727Y8682D01*
G01X14745Y8695D01*
G01X14761Y8706D01*
G01X14778Y8715D01*
G01X14794Y8722D01*
G01X14810Y8727D01*
G01X14826Y8730D01*
G01X14842Y8730D01*
G01X14862Y8729D01*
G01X14879Y8724D01*
G01X14893Y8716D01*
G01X14904Y8704D01*
G01X14913Y8688D01*
G01X14919Y8667D01*
G01X14922Y8642D01*
G01X14923Y8611D01*
G01X14923Y8373D01*
G01X14922Y8353D01*
G01X14847Y8344D01*
G01X14847Y8313D01*
G01X15074Y8313D01*
G01X15074Y8344D01*
G01X15006Y8353D01*
G01X15006Y8373D01*
G01X15005Y8394D01*
G01X15005Y8415D01*
G01X15004Y8437D01*
G01X15004Y8480D01*
G01X15003Y8501D01*
G01X15003Y8653D01*
G01X15001Y8665D01*
G01X15020Y8681D01*
G01X15039Y8695D01*
G01X15056Y8707D01*
G01X15073Y8715D01*
G01X15089Y8722D01*
G01X15105Y8727D01*
G01X15121Y8730D01*
G01X15136Y8730D01*
G01X15156Y8729D01*
G01X15173Y8725D01*
G01X15187Y8717D01*
G01X15199Y8706D01*
G01X15208Y8690D01*
G01X15214Y8669D01*
G01X15218Y8644D01*
G01X15219Y8613D01*
G01X15219Y8437D01*
G01X15218Y8415D01*
G01X15218Y8373D01*
G01X15217Y8353D01*
G01X15144Y8344D01*
G01X15144Y8313D01*
G01X15370Y8313D01*
G01X15370Y8344D01*
G01X15300Y8353D01*
G01X15300Y8480D01*
G01X15299Y8501D01*
G01X15299Y8623D01*
G01X15298Y8651D01*
G01X15296Y8677D01*
G01X15291Y8700D01*
G01X15285Y8721D01*
G01X15276Y8738D01*
G01X15266Y8753D01*
G01X15255Y8766D01*
G01X15242Y8776D01*
G01X15227Y8784D01*
G01X15211Y8789D01*
G01X15193Y8792D01*
G01X15173Y8794D01*
G01X15150Y8792D01*
G01X15126Y8788D01*
G01X15103Y8781D01*
G01X15080Y8771D01*
G01X15058Y8758D01*
G01X15036Y8742D01*
G01X15015Y8723D01*
G01X14994Y8701D01*
G01X14987Y8723D01*
G01X14978Y8742D01*
G01X14966Y8759D01*
G01X14953Y8771D01*
G01X14937Y8781D01*
G01X14920Y8788D01*
G01X14900Y8792D01*
G37*

%LPD*%
G36*
G01X14291Y8984D02*
G01X14260Y8986D01*
G01X14236Y8984D01*
G01X14213Y8982D01*
G01X14190Y8976D01*
G01X14169Y8969D01*
G01X14148Y8960D01*
G01X14130Y8949D01*
G01X14113Y8935D01*
G01X14098Y8920D01*
G01X14085Y8902D01*
G01X14075Y8883D01*
G01X14067Y8861D01*
G01X14062Y8838D01*
G01X14071Y8825D01*
G01X14082Y8815D01*
G01X14095Y8809D01*
G01X14110Y8807D01*
G01X14128Y8810D01*
G01X14142Y8820D01*
G01X14154Y8839D01*
G01X14164Y8869D01*
G01X14184Y8940D01*
G01X14199Y8944D01*
G01X14213Y8945D01*
G01X14226Y8946D01*
G01X14237Y8946D01*
G01X14264Y8944D01*
G01X14287Y8936D01*
G01X14308Y8925D01*
G01X14325Y8908D01*
G01X14339Y8888D01*
G01X14349Y8864D01*
G01X14355Y8837D01*
G01X14357Y8807D01*
G01X14356Y8787D01*
G01X14354Y8767D01*
G01X14349Y8747D01*
G01X14342Y8727D01*
G01X14334Y8707D01*
G01X14323Y8686D01*
G01X14310Y8665D01*
G01X14296Y8642D01*
G01X14279Y8619D01*
G01X14260Y8595D01*
G01X14239Y8569D01*
G01X14216Y8542D01*
G01X14200Y8524D01*
G01X14183Y8504D01*
G01X14165Y8484D01*
G01X14146Y8463D01*
G01X14127Y8441D01*
G01X14107Y8419D01*
G01X14088Y8396D01*
G01X14067Y8373D01*
G01X14067Y8313D01*
G01X14472Y8313D01*
G01X14472Y8388D01*
G01X14130Y8388D01*
G01X14147Y8406D01*
G01X14164Y8423D01*
G01X14180Y8440D01*
G01X14196Y8456D01*
G01X14210Y8471D01*
G01X14224Y8485D01*
G01X14236Y8498D01*
G01X14246Y8509D01*
G01X14273Y8536D01*
G01X14297Y8562D01*
G01X14319Y8586D01*
G01X14339Y8609D01*
G01X14357Y8630D01*
G01X14374Y8649D01*
G01X14388Y8668D01*
G01X14401Y8686D01*
G01X14411Y8702D01*
G01X14421Y8719D01*
G01X14428Y8734D01*
G01X14434Y8750D01*
G01X14439Y8765D01*
G01X14442Y8780D01*
G01X14444Y8796D01*
G01X14444Y8811D01*
G01X14443Y8836D01*
G01X14440Y8860D01*
G01X14434Y8882D01*
G01X14425Y8902D01*
G01X14414Y8920D01*
G01X14400Y8937D01*
G01X14384Y8951D01*
G01X14365Y8963D01*
G01X14343Y8973D01*
G01X14318Y8980D01*
G01X14291Y8984D01*
G37*

%LPD*%
G36*
G01X16227Y8429D02*
G01X16200Y8434D01*
G01X16175Y8429D01*
G01X16154Y8414D01*
G01X16140Y8392D01*
G01X16134Y8365D01*
G01X16140Y8340D01*
G01X16154Y8319D01*
G01X16175Y8305D01*
G01X16200Y8300D01*
G01X16227Y8305D01*
G01X16249Y8319D01*
G01X16263Y8340D01*
G01X16268Y8365D01*
G01X16263Y8392D01*
G01X16249Y8414D01*
G01X16227Y8429D01*
G37*

%LPD*%
G01X17573Y17603D02*
G01X17519Y17576D01*
G01X17466Y17521D01*
G01X17439Y17467D01*
G01X17439Y17361D01*
G01X17466Y17307D01*
G01X17519Y17253D01*
G01X17573Y17227D01*
G01X17654Y17200D01*
G01X17788Y17200D01*
G01X17868Y17227D01*
G01X17922Y17253D01*
G01X17976Y17307D01*
G01X18003Y17361D01*
G01X18003Y17467D01*
G01X17976Y17521D01*
G01X17922Y17576D01*
G01X17868Y17603D01*
G01X17788Y17603D01*
G01X17788Y17467D02*
G01X17788Y17603D01*
G01X17627Y17780D02*
G01X18003Y17780D01*
G01X17734Y17780D02*
G01X17654Y17859D01*
G01X17627Y17913D01*
G01X17627Y17994D01*
G01X17654Y18048D01*
G01X17734Y18075D01*
G01X18003Y18075D01*
G01X17439Y18573D02*
G01X18003Y18573D01*
G01X17707Y18573D02*
G01X17654Y18521D01*
G01X17627Y18467D01*
G01X17627Y18386D01*
G01X17654Y18332D01*
G01X17707Y18278D01*
G01X17788Y18252D01*
G01X17842Y18252D01*
G01X17922Y18278D01*
G01X17976Y18332D01*
G01X18003Y18386D01*
G01X18003Y18467D01*
G01X17976Y18521D01*
G01X17922Y18573D01*
G01X15317Y17361D02*
G01X15344Y17307D01*
G01X15397Y17253D01*
G01X15451Y17227D01*
G01X15532Y17200D01*
G01X15666Y17200D01*
G01X15746Y17227D01*
G01X15800Y17253D01*
G01X15854Y17307D01*
G01X15881Y17361D01*
G01X15881Y17467D01*
G01X15854Y17521D01*
G01X15800Y17576D01*
G01X15746Y17603D01*
G01X15666Y17628D01*
G01X15532Y17628D01*
G01X15451Y17603D01*
G01X15397Y17576D01*
G01X15344Y17521D01*
G01X15317Y17467D01*
G01X15317Y17361D01*
G01X15505Y17807D02*
G01X15773Y17807D01*
G01X15854Y17832D01*
G01X15881Y17886D01*
G01X15881Y17967D01*
G01X15854Y18021D01*
G01X15773Y18102D01*
G01X15505Y18102D02*
G01X15881Y18102D01*
G01X15317Y18359D02*
G01X15773Y18359D01*
G01X15854Y18386D01*
G01X15881Y18440D01*
G01X15881Y18494D01*
G01X15505Y18278D02*
G01X15505Y18467D01*
G01X14317Y17200D02*
G01X14881Y17415D01*
G01X14317Y17628D02*
G01X14881Y17415D01*
G01X14585Y18128D02*
G01X14532Y18075D01*
G01X14505Y18021D01*
G01X14505Y17940D01*
G01X14532Y17886D01*
G01X14585Y17832D01*
G01X14666Y17807D01*
G01X14720Y17807D01*
G01X14800Y17832D01*
G01X14854Y17886D01*
G01X14881Y17940D01*
G01X14881Y18021D01*
G01X14854Y18075D01*
G01X14800Y18128D01*
G01X14585Y18628D02*
G01X14532Y18573D01*
G01X14505Y18521D01*
G01X14505Y18440D01*
G01X14532Y18386D01*
G01X14585Y18332D01*
G01X14666Y18305D01*
G01X14720Y18305D01*
G01X14800Y18332D01*
G01X14854Y18386D01*
G01X14881Y18440D01*
G01X14881Y18521D01*
G01X14854Y18573D01*
G01X14800Y18628D01*
G54D22*
G01X21339Y2753D02*
G01X21339Y2446D01*
G01X21359Y2386D01*
G01X21400Y2344D01*
G01X21462Y2325D01*
G01X21503Y2325D01*
G01X21564Y2344D01*
G01X21605Y2386D01*
G01X21625Y2446D01*
G01X21625Y2753D01*
G01X21801Y2753D02*
G01X22026Y2753D01*
G01X21904Y2590D01*
G01X21965Y2590D01*
G01X22006Y2569D01*
G01X22026Y2550D01*
G01X22047Y2488D01*
G01X22047Y2446D01*
G01X22026Y2386D01*
G01X21985Y2344D01*
G01X21924Y2325D01*
G01X21863Y2325D01*
G01X21801Y2344D01*
G01X21781Y2365D01*
G01X21760Y2405D01*
G54D20*
G01X22507Y786D02*
G01X22462Y832D01*
G01X22394Y855D01*
G01X22303Y855D01*
G01X22234Y832D01*
G01X22189Y786D01*
G01X22189Y740D01*
G01X22212Y694D01*
G01X22234Y673D01*
G01X22280Y650D01*
G01X22416Y605D01*
G01X22462Y582D01*
G01X22484Y559D01*
G01X22507Y513D01*
G01X22507Y444D01*
G01X22462Y400D01*
G01X22394Y376D01*
G01X22303Y376D01*
G01X22234Y400D01*
G01X22189Y444D01*
G01X22998Y740D02*
G01X22975Y786D01*
G01X22930Y832D01*
G01X22884Y855D01*
G01X22794Y855D01*
G01X22748Y832D01*
G01X22703Y786D01*
G01X22680Y740D01*
G01X22657Y673D01*
G01X22657Y559D01*
G01X22680Y490D01*
G01X22703Y444D01*
G01X22748Y400D01*
G01X22794Y376D01*
G01X22884Y376D01*
G01X22930Y400D01*
G01X22975Y444D01*
G01X22998Y490D01*
G01X23307Y855D02*
G01X23307Y376D01*
G01X23148Y855D02*
G01X23466Y855D01*
G01X23616Y582D02*
G01X24025Y582D01*
G01X24312Y855D02*
G01X24244Y832D01*
G01X24198Y763D01*
G01X24175Y650D01*
G01X24175Y582D01*
G01X24198Y467D01*
G01X24244Y400D01*
G01X24312Y376D01*
G01X24357Y376D01*
G01X24425Y400D01*
G01X24471Y467D01*
G01X24494Y582D01*
G01X24494Y650D01*
G01X24471Y763D01*
G01X24425Y832D01*
G01X24357Y855D01*
G01X24312Y855D01*
G01X24644Y763D02*
G01X24689Y786D01*
G01X24757Y855D01*
G01X24757Y376D01*
G01X24953Y855D02*
G01X25203Y855D01*
G01X25066Y673D01*
G01X25134Y673D01*
G01X25180Y650D01*
G01X25203Y626D01*
G01X25225Y559D01*
G01X25225Y513D01*
G01X25203Y444D01*
G01X25157Y400D01*
G01X25089Y376D01*
G01X25021Y376D01*
G01X24953Y400D01*
G01X24930Y423D01*
G01X24907Y467D01*
G54D22*
G01X5689Y21003D02*
G01X5689Y20696D01*
G01X5709Y20636D01*
G01X5750Y20594D01*
G01X5812Y20575D01*
G01X5853Y20575D01*
G01X5914Y20594D01*
G01X5955Y20636D01*
G01X5975Y20696D01*
G01X5975Y21003D01*
G01X6110Y20921D02*
G01X6151Y20942D01*
G01X6213Y21003D01*
G01X6213Y20575D01*
G54D23*
G01X1195Y18192D02*
G01X1195Y17886D01*
G01X1195Y18192D02*
G01X1384Y18192D01*
G01X1195Y18046D02*
G01X1311Y18046D01*
G01X1195Y17886D02*
G01X1384Y17886D01*
G01X1480Y18192D02*
G01X1480Y17886D01*
G01X1480Y18192D02*
G01X1683Y17886D01*
G01X1683Y18192D02*
G01X1683Y17886D01*
G01X1195Y17192D02*
G01X1311Y16886D01*
G01X1427Y17192D02*
G01X1311Y16886D01*
G01X1523Y17192D02*
G01X1523Y16886D01*
G01X1523Y17192D02*
G01X1654Y17192D01*
G01X1698Y17177D01*
G01X1712Y17163D01*
G01X1727Y17132D01*
G01X1727Y17090D01*
G01X1712Y17061D01*
G01X1698Y17046D01*
G01X1654Y17032D01*
G01X1523Y17032D01*
G01X1195Y16192D02*
G01X1311Y15886D01*
G01X1427Y16192D02*
G01X1311Y15886D01*
G01X1523Y16192D02*
G01X1523Y15886D01*
G01X1523Y16192D02*
G01X1727Y15886D01*
G01X1727Y16192D02*
G01X1727Y15886D01*
G01X1195Y15192D02*
G01X1195Y14886D01*
G01X1195Y15192D02*
G01X1296Y15192D01*
G01X1340Y15176D01*
G01X1369Y15148D01*
G01X1384Y15119D01*
G01X1398Y15075D01*
G01X1398Y15003D01*
G01X1384Y14959D01*
G01X1369Y14930D01*
G01X1340Y14901D01*
G01X1296Y14886D01*
G01X1195Y14886D01*
G01X1523Y15192D02*
G01X1683Y15192D01*
G01X1596Y15075D01*
G01X1640Y15075D01*
G01X1669Y15061D01*
G01X1683Y15046D01*
G01X1698Y15003D01*
G01X1698Y14973D01*
G01X1683Y14930D01*
G01X1654Y14901D01*
G01X1611Y14886D01*
G01X1567Y14886D01*
G01X1523Y14901D01*
G01X1509Y14915D01*
G01X1494Y14944D01*
G01X1939Y15192D02*
G01X1794Y14988D01*
G01X2012Y14988D01*
G01X1939Y15192D02*
G01X1939Y14886D01*
G01X1195Y14192D02*
G01X1195Y13886D01*
G01X1195Y14192D02*
G01X1296Y14192D01*
G01X1340Y14176D01*
G01X1369Y14148D01*
G01X1384Y14119D01*
G01X1398Y14075D01*
G01X1398Y14003D01*
G01X1384Y13959D01*
G01X1369Y13930D01*
G01X1340Y13901D01*
G01X1296Y13886D01*
G01X1195Y13886D01*
G01X1523Y14192D02*
G01X1683Y14192D01*
G01X1596Y14075D01*
G01X1640Y14075D01*
G01X1669Y14061D01*
G01X1683Y14046D01*
G01X1698Y14003D01*
G01X1698Y13973D01*
G01X1683Y13930D01*
G01X1654Y13901D01*
G01X1611Y13886D01*
G01X1567Y13886D01*
G01X1523Y13901D01*
G01X1509Y13915D01*
G01X1494Y13944D01*
G01X1968Y14192D02*
G01X1823Y14192D01*
G01X1808Y14061D01*
G01X1823Y14075D01*
G01X1867Y14090D01*
G01X1910Y14090D01*
G01X1954Y14075D01*
G01X1983Y14046D01*
G01X1997Y14003D01*
G01X1997Y13973D01*
G01X1983Y13930D01*
G01X1954Y13901D01*
G01X1910Y13886D01*
G01X1867Y13886D01*
G01X1823Y13901D01*
G01X1808Y13915D01*
G01X1794Y13944D01*
G01X1195Y13192D02*
G01X1195Y12886D01*
G01X1195Y13192D02*
G01X1296Y13192D01*
G01X1340Y13176D01*
G01X1369Y13148D01*
G01X1384Y13119D01*
G01X1398Y13075D01*
G01X1398Y13003D01*
G01X1384Y12959D01*
G01X1369Y12930D01*
G01X1340Y12901D01*
G01X1296Y12886D01*
G01X1195Y12886D01*
G01X1523Y13192D02*
G01X1683Y13192D01*
G01X1596Y13075D01*
G01X1640Y13075D01*
G01X1669Y13061D01*
G01X1683Y13046D01*
G01X1698Y13003D01*
G01X1698Y12973D01*
G01X1683Y12930D01*
G01X1654Y12901D01*
G01X1611Y12886D01*
G01X1567Y12886D01*
G01X1523Y12901D01*
G01X1509Y12915D01*
G01X1494Y12944D01*
G01X1808Y13119D02*
G01X1808Y13132D01*
G01X1823Y13163D01*
G01X1837Y13176D01*
G01X1867Y13192D01*
G01X1925Y13192D01*
G01X1954Y13176D01*
G01X1968Y13163D01*
G01X1983Y13132D01*
G01X1983Y13103D01*
G01X1968Y13075D01*
G01X1939Y13032D01*
G01X1794Y12886D01*
G01X1997Y12886D01*
G01X1195Y12192D02*
G01X1195Y11886D01*
G01X1195Y12192D02*
G01X1296Y12192D01*
G01X1340Y12176D01*
G01X1369Y12148D01*
G01X1384Y12119D01*
G01X1398Y12075D01*
G01X1398Y12003D01*
G01X1384Y11959D01*
G01X1369Y11930D01*
G01X1340Y11901D01*
G01X1296Y11886D01*
G01X1195Y11886D01*
G01X1523Y12192D02*
G01X1683Y12192D01*
G01X1596Y12075D01*
G01X1640Y12075D01*
G01X1669Y12061D01*
G01X1683Y12046D01*
G01X1698Y12003D01*
G01X1698Y11973D01*
G01X1683Y11930D01*
G01X1654Y11901D01*
G01X1611Y11886D01*
G01X1567Y11886D01*
G01X1523Y11901D01*
G01X1509Y11915D01*
G01X1494Y11944D01*
G01X1823Y12192D02*
G01X1983Y12192D01*
G01X1896Y12075D01*
G01X1939Y12075D01*
G01X1968Y12061D01*
G01X1983Y12046D01*
G01X1997Y12003D01*
G01X1997Y11973D01*
G01X1983Y11930D01*
G01X1954Y11901D01*
G01X1910Y11886D01*
G01X1867Y11886D01*
G01X1823Y11901D01*
G01X1808Y11915D01*
G01X1794Y11944D01*
G01X1195Y11192D02*
G01X1195Y10886D01*
G01X1195Y11192D02*
G01X1296Y11192D01*
G01X1340Y11176D01*
G01X1369Y11148D01*
G01X1384Y11119D01*
G01X1398Y11075D01*
G01X1398Y11003D01*
G01X1384Y10959D01*
G01X1369Y10930D01*
G01X1340Y10901D01*
G01X1296Y10886D01*
G01X1195Y10886D01*
G01X1509Y11119D02*
G01X1509Y11132D01*
G01X1523Y11163D01*
G01X1538Y11176D01*
G01X1567Y11192D01*
G01X1625Y11192D01*
G01X1654Y11176D01*
G01X1669Y11163D01*
G01X1683Y11132D01*
G01X1683Y11103D01*
G01X1669Y11075D01*
G01X1640Y11032D01*
G01X1494Y10886D01*
G01X1698Y10886D01*
G01X1968Y11192D02*
G01X1823Y11192D01*
G01X1808Y11061D01*
G01X1823Y11075D01*
G01X1867Y11090D01*
G01X1910Y11090D01*
G01X1954Y11075D01*
G01X1983Y11046D01*
G01X1997Y11003D01*
G01X1997Y10973D01*
G01X1983Y10930D01*
G01X1954Y10901D01*
G01X1910Y10886D01*
G01X1867Y10886D01*
G01X1823Y10901D01*
G01X1808Y10915D01*
G01X1794Y10944D01*
G01X1195Y10192D02*
G01X1195Y9886D01*
G01X1195Y10192D02*
G01X1296Y10192D01*
G01X1340Y10176D01*
G01X1369Y10148D01*
G01X1384Y10119D01*
G01X1398Y10075D01*
G01X1398Y10003D01*
G01X1384Y9959D01*
G01X1369Y9930D01*
G01X1340Y9901D01*
G01X1296Y9886D01*
G01X1195Y9886D01*
G01X1509Y10119D02*
G01X1509Y10132D01*
G01X1523Y10163D01*
G01X1538Y10176D01*
G01X1567Y10192D01*
G01X1625Y10192D01*
G01X1654Y10176D01*
G01X1669Y10163D01*
G01X1683Y10132D01*
G01X1683Y10103D01*
G01X1669Y10075D01*
G01X1640Y10032D01*
G01X1494Y9886D01*
G01X1698Y9886D01*
G01X1968Y10148D02*
G01X1954Y10176D01*
G01X1910Y10192D01*
G01X1881Y10192D01*
G01X1837Y10176D01*
G01X1808Y10132D01*
G01X1794Y10061D01*
G01X1794Y9988D01*
G01X1808Y9930D01*
G01X1837Y9901D01*
G01X1881Y9886D01*
G01X1896Y9886D01*
G01X1939Y9901D01*
G01X1968Y9930D01*
G01X1983Y9973D01*
G01X1983Y9988D01*
G01X1968Y10032D01*
G01X1939Y10061D01*
G01X1896Y10075D01*
G01X1881Y10075D01*
G01X1837Y10061D01*
G01X1808Y10032D01*
G01X1794Y9988D01*
G01X1195Y9192D02*
G01X1195Y8886D01*
G01X1195Y9192D02*
G01X1296Y9192D01*
G01X1340Y9176D01*
G01X1369Y9148D01*
G01X1384Y9119D01*
G01X1398Y9075D01*
G01X1398Y9003D01*
G01X1384Y8959D01*
G01X1369Y8930D01*
G01X1340Y8901D01*
G01X1296Y8886D01*
G01X1195Y8886D01*
G01X1509Y9119D02*
G01X1509Y9132D01*
G01X1523Y9163D01*
G01X1538Y9176D01*
G01X1567Y9192D01*
G01X1625Y9192D01*
G01X1654Y9176D01*
G01X1669Y9163D01*
G01X1683Y9132D01*
G01X1683Y9103D01*
G01X1669Y9075D01*
G01X1640Y9032D01*
G01X1494Y8886D01*
G01X1698Y8886D01*
G01X1997Y9192D02*
G01X1852Y8886D01*
G01X1794Y9192D02*
G01X1997Y9192D01*
G01X1195Y8192D02*
G01X1195Y7886D01*
G01X1195Y8192D02*
G01X1296Y8192D01*
G01X1340Y8176D01*
G01X1369Y8148D01*
G01X1384Y8119D01*
G01X1398Y8075D01*
G01X1398Y8003D01*
G01X1384Y7959D01*
G01X1369Y7930D01*
G01X1340Y7901D01*
G01X1296Y7886D01*
G01X1195Y7886D01*
G01X1494Y8132D02*
G01X1523Y8148D01*
G01X1567Y8192D01*
G01X1567Y7886D01*
G01X1808Y8192D02*
G01X1663Y7988D01*
G01X1881Y7988D01*
G01X1808Y8192D02*
G01X1808Y7886D01*
G01X1195Y7192D02*
G01X1195Y6886D01*
G01X1195Y7192D02*
G01X1296Y7192D01*
G01X1340Y7176D01*
G01X1369Y7148D01*
G01X1384Y7119D01*
G01X1398Y7075D01*
G01X1398Y7003D01*
G01X1384Y6959D01*
G01X1369Y6930D01*
G01X1340Y6901D01*
G01X1296Y6886D01*
G01X1195Y6886D01*
G01X1494Y7132D02*
G01X1523Y7148D01*
G01X1567Y7192D01*
G01X1567Y6886D01*
G01X1677Y7119D02*
G01X1677Y7132D01*
G01X1692Y7163D01*
G01X1707Y7176D01*
G01X1736Y7192D01*
G01X1794Y7192D01*
G01X1823Y7176D01*
G01X1837Y7163D01*
G01X1852Y7132D01*
G01X1852Y7103D01*
G01X1837Y7075D01*
G01X1808Y7032D01*
G01X1663Y6886D01*
G01X1867Y6886D01*
G01X1195Y6192D02*
G01X1195Y5886D01*
G01X1195Y6192D02*
G01X1296Y6192D01*
G01X1340Y6176D01*
G01X1369Y6148D01*
G01X1384Y6119D01*
G01X1398Y6075D01*
G01X1398Y6003D01*
G01X1384Y5959D01*
G01X1369Y5930D01*
G01X1340Y5901D01*
G01X1296Y5886D01*
G01X1195Y5886D01*
G01X1494Y6132D02*
G01X1523Y6148D01*
G01X1567Y6192D01*
G01X1567Y5886D01*
G01X1692Y6192D02*
G01X1852Y6192D01*
G01X1765Y6075D01*
G01X1808Y6075D01*
G01X1837Y6061D01*
G01X1852Y6046D01*
G01X1867Y6003D01*
G01X1867Y5973D01*
G01X1852Y5930D01*
G01X1823Y5901D01*
G01X1779Y5886D01*
G01X1736Y5886D01*
G01X1692Y5901D01*
G01X1677Y5915D01*
G01X1663Y5944D01*
G01X1413Y5119D02*
G01X1398Y5148D01*
G01X1369Y5176D01*
G01X1340Y5192D01*
G01X1282Y5192D01*
G01X1253Y5176D01*
G01X1224Y5148D01*
G01X1209Y5119D01*
G01X1195Y5075D01*
G01X1195Y5003D01*
G01X1209Y4959D01*
G01X1224Y4930D01*
G01X1253Y4901D01*
G01X1282Y4886D01*
G01X1340Y4886D01*
G01X1369Y4901D01*
G01X1398Y4930D01*
G01X1413Y4959D01*
G01X1413Y5003D01*
G01X1340Y5003D02*
G01X1413Y5003D01*
G01X1509Y5192D02*
G01X1509Y4886D01*
G01X1509Y5192D02*
G01X1712Y4886D01*
G01X1712Y5192D02*
G01X1712Y4886D01*
G01X1808Y5192D02*
G01X1808Y4886D01*
G01X1808Y5192D02*
G01X1910Y5192D01*
G01X1954Y5176D01*
G01X1983Y5148D01*
G01X1997Y5119D01*
G01X2012Y5075D01*
G01X2012Y5003D01*
G01X1997Y4959D01*
G01X1983Y4930D01*
G01X1954Y4901D01*
G01X1910Y4886D01*
G01X1808Y4886D01*
G01X1195Y4192D02*
G01X1311Y3886D01*
G01X1427Y4192D02*
G01X1311Y3886D01*
G01X1523Y4192D02*
G01X1523Y3886D01*
G01X1619Y4192D02*
G01X1619Y3886D01*
G01X1619Y4192D02*
G01X1823Y3886D01*
G01X1823Y4192D02*
G01X1823Y3886D01*
G01X9360Y4192D02*
G01X9520Y4192D01*
G01X9432Y4075D01*
G01X9476Y4075D01*
G01X9505Y4061D01*
G01X9520Y4046D01*
G01X9534Y4003D01*
G01X9534Y3973D01*
G01X9520Y3930D01*
G01X9491Y3901D01*
G01X9447Y3886D01*
G01X9403Y3886D01*
G01X9360Y3901D01*
G01X9345Y3915D01*
G01X9331Y3944D01*
G01X9630Y4192D02*
G01X9747Y3886D01*
G01X9863Y4192D02*
G01X9747Y3886D01*
G01X9988Y4192D02*
G01X10148Y4192D01*
G01X10061Y4075D01*
G01X10104Y4075D01*
G01X10133Y4061D01*
G01X10148Y4046D01*
G01X10163Y4003D01*
G01X10163Y3973D01*
G01X10148Y3930D01*
G01X10119Y3901D01*
G01X10075Y3886D01*
G01X10032Y3886D01*
G01X9988Y3901D01*
G01X9973Y3915D01*
G01X9959Y3944D01*
G01X9549Y5119D02*
G01X9534Y5148D01*
G01X9505Y5176D01*
G01X9476Y5192D01*
G01X9418Y5192D01*
G01X9389Y5176D01*
G01X9360Y5148D01*
G01X9345Y5119D01*
G01X9331Y5075D01*
G01X9331Y5003D01*
G01X9345Y4959D01*
G01X9360Y4930D01*
G01X9389Y4901D01*
G01X9418Y4886D01*
G01X9476Y4886D01*
G01X9505Y4901D01*
G01X9534Y4930D01*
G01X9549Y4959D01*
G01X9549Y5003D01*
G01X9476Y5003D02*
G01X9549Y5003D01*
G01X9645Y5192D02*
G01X9645Y4886D01*
G01X9645Y5192D02*
G01X9848Y4886D01*
G01X9848Y5192D02*
G01X9848Y4886D01*
G01X9944Y5192D02*
G01X9944Y4886D01*
G01X9944Y5192D02*
G01X10046Y5192D01*
G01X10090Y5176D01*
G01X10119Y5148D01*
G01X10133Y5119D01*
G01X10148Y5075D01*
G01X10148Y5003D01*
G01X10133Y4959D01*
G01X10119Y4930D01*
G01X10090Y4901D01*
G01X10046Y4886D01*
G01X9944Y4886D01*
G01X9331Y6192D02*
G01X9331Y5886D01*
G01X9331Y6192D02*
G01X9432Y6192D01*
G01X9476Y6176D01*
G01X9505Y6148D01*
G01X9520Y6119D01*
G01X9534Y6075D01*
G01X9534Y6003D01*
G01X9520Y5959D01*
G01X9505Y5930D01*
G01X9476Y5901D01*
G01X9432Y5886D01*
G01X9331Y5886D01*
G01X9630Y6132D02*
G01X9659Y6148D01*
G01X9703Y6192D01*
G01X9703Y5886D01*
G01X9973Y6192D02*
G01X9828Y6192D01*
G01X9813Y6061D01*
G01X9828Y6075D01*
G01X9872Y6090D01*
G01X9915Y6090D01*
G01X9959Y6075D01*
G01X9988Y6046D01*
G01X10003Y6003D01*
G01X10003Y5973D01*
G01X9988Y5930D01*
G01X9959Y5901D01*
G01X9915Y5886D01*
G01X9872Y5886D01*
G01X9828Y5901D01*
G01X9813Y5915D01*
G01X9799Y5944D01*
G01X9619Y7192D02*
G01X9619Y6886D01*
G01X9619Y7192D02*
G01X9720Y7192D01*
G01X9764Y7176D01*
G01X9793Y7148D01*
G01X9808Y7119D01*
G01X9822Y7075D01*
G01X9822Y7003D01*
G01X9808Y6959D01*
G01X9793Y6930D01*
G01X9764Y6901D01*
G01X9720Y6886D01*
G01X9619Y6886D01*
G01X9933Y7119D02*
G01X9933Y7132D01*
G01X9947Y7163D01*
G01X9962Y7176D01*
G01X9991Y7192D01*
G01X10049Y7192D01*
G01X10078Y7176D01*
G01X10093Y7163D01*
G01X10107Y7132D01*
G01X10107Y7103D01*
G01X10093Y7075D01*
G01X10064Y7032D01*
G01X9918Y6886D01*
G01X10122Y6886D01*
G01X9619Y8192D02*
G01X9619Y7886D01*
G01X9619Y8192D02*
G01X9720Y8192D01*
G01X9764Y8176D01*
G01X9793Y8148D01*
G01X9808Y8119D01*
G01X9822Y8075D01*
G01X9822Y8003D01*
G01X9808Y7959D01*
G01X9793Y7930D01*
G01X9764Y7901D01*
G01X9720Y7886D01*
G01X9619Y7886D01*
G01X10064Y8192D02*
G01X9918Y7988D01*
G01X10136Y7988D01*
G01X10064Y8192D02*
G01X10064Y7886D01*
G01X9331Y9192D02*
G01X9331Y8886D01*
G01X9331Y9192D02*
G01X9461Y9192D01*
G01X9505Y9176D01*
G01X9520Y9163D01*
G01X9534Y9132D01*
G01X9534Y9103D01*
G01X9520Y9075D01*
G01X9505Y9061D01*
G01X9461Y9046D01*
G01X9331Y9046D01*
G01X9432Y9046D02*
G01X9534Y8886D01*
G01X9630Y9192D02*
G01X9834Y8886D01*
G01X9834Y9192D02*
G01X9630Y8886D01*
G01X9944Y9119D02*
G01X9944Y9132D01*
G01X9959Y9163D01*
G01X9973Y9176D01*
G01X10003Y9192D01*
G01X10061Y9192D01*
G01X10090Y9176D01*
G01X10104Y9163D01*
G01X10119Y9132D01*
G01X10119Y9103D01*
G01X10104Y9075D01*
G01X10075Y9032D01*
G01X9930Y8886D01*
G01X10133Y8886D01*
G01X9432Y10192D02*
G01X9432Y9886D01*
G01X9331Y10192D02*
G01X9534Y10192D01*
G01X9630Y10192D02*
G01X9834Y9886D01*
G01X9834Y10192D02*
G01X9630Y9886D01*
G01X9944Y10119D02*
G01X9944Y10132D01*
G01X9959Y10163D01*
G01X9973Y10176D01*
G01X10003Y10192D01*
G01X10061Y10192D01*
G01X10090Y10176D01*
G01X10104Y10163D01*
G01X10119Y10132D01*
G01X10119Y10103D01*
G01X10104Y10075D01*
G01X10075Y10032D01*
G01X9930Y9886D01*
G01X10133Y9886D01*
G01X9619Y11192D02*
G01X9619Y10886D01*
G01X9619Y11192D02*
G01X9720Y11192D01*
G01X9764Y11176D01*
G01X9793Y11148D01*
G01X9808Y11119D01*
G01X9822Y11075D01*
G01X9822Y11003D01*
G01X9808Y10959D01*
G01X9793Y10930D01*
G01X9764Y10901D01*
G01X9720Y10886D01*
G01X9619Y10886D01*
G01X10093Y11192D02*
G01X9947Y11192D01*
G01X9933Y11061D01*
G01X9947Y11075D01*
G01X9991Y11090D01*
G01X10035Y11090D01*
G01X10078Y11075D01*
G01X10107Y11046D01*
G01X10122Y11003D01*
G01X10122Y10973D01*
G01X10107Y10930D01*
G01X10078Y10901D01*
G01X10035Y10886D01*
G01X9991Y10886D01*
G01X9947Y10901D01*
G01X9933Y10915D01*
G01X9918Y10944D01*
G01X9331Y12192D02*
G01X9331Y11886D01*
G01X9331Y12192D02*
G01X9432Y12192D01*
G01X9476Y12176D01*
G01X9505Y12148D01*
G01X9520Y12119D01*
G01X9534Y12075D01*
G01X9534Y12003D01*
G01X9520Y11959D01*
G01X9505Y11930D01*
G01X9476Y11901D01*
G01X9432Y11886D01*
G01X9331Y11886D01*
G01X9630Y12132D02*
G01X9659Y12148D01*
G01X9703Y12192D01*
G01X9703Y11886D01*
G01X9872Y12192D02*
G01X9828Y12176D01*
G01X9813Y12148D01*
G01X9813Y12119D01*
G01X9828Y12090D01*
G01X9857Y12075D01*
G01X9915Y12061D01*
G01X9959Y12046D01*
G01X9988Y12017D01*
G01X10003Y11988D01*
G01X10003Y11944D01*
G01X9988Y11915D01*
G01X9973Y11901D01*
G01X9930Y11886D01*
G01X9872Y11886D01*
G01X9828Y11901D01*
G01X9813Y11915D01*
G01X9799Y11944D01*
G01X9799Y11988D01*
G01X9813Y12017D01*
G01X9843Y12046D01*
G01X9886Y12061D01*
G01X9944Y12075D01*
G01X9973Y12090D01*
G01X9988Y12119D01*
G01X9988Y12148D01*
G01X9973Y12176D01*
G01X9930Y12192D01*
G01X9872Y12192D01*
G01X9331Y13192D02*
G01X9331Y12886D01*
G01X9331Y13192D02*
G01X9432Y13192D01*
G01X9476Y13176D01*
G01X9505Y13148D01*
G01X9520Y13119D01*
G01X9534Y13075D01*
G01X9534Y13003D01*
G01X9520Y12959D01*
G01X9505Y12930D01*
G01X9476Y12901D01*
G01X9432Y12886D01*
G01X9331Y12886D01*
G01X9630Y13132D02*
G01X9659Y13148D01*
G01X9703Y13192D01*
G01X9703Y12886D01*
G01X9988Y13090D02*
G01X9973Y13046D01*
G01X9944Y13017D01*
G01X9901Y13003D01*
G01X9886Y13003D01*
G01X9843Y13017D01*
G01X9813Y13046D01*
G01X9799Y13090D01*
G01X9799Y13103D01*
G01X9813Y13148D01*
G01X9843Y13176D01*
G01X9886Y13192D01*
G01X9901Y13192D01*
G01X9944Y13176D01*
G01X9973Y13148D01*
G01X9988Y13090D01*
G01X9988Y13017D01*
G01X9973Y12944D01*
G01X9944Y12901D01*
G01X9901Y12886D01*
G01X9872Y12886D01*
G01X9828Y12901D01*
G01X9813Y12930D01*
G01X9331Y14192D02*
G01X9331Y13886D01*
G01X9331Y14192D02*
G01X9432Y14192D01*
G01X9476Y14176D01*
G01X9505Y14148D01*
G01X9520Y14119D01*
G01X9534Y14075D01*
G01X9534Y14003D01*
G01X9520Y13959D01*
G01X9505Y13930D01*
G01X9476Y13901D01*
G01X9432Y13886D01*
G01X9331Y13886D01*
G01X9645Y14119D02*
G01X9645Y14132D01*
G01X9659Y14163D01*
G01X9674Y14176D01*
G01X9703Y14192D01*
G01X9761Y14192D01*
G01X9790Y14176D01*
G01X9805Y14163D01*
G01X9819Y14132D01*
G01X9819Y14103D01*
G01X9805Y14075D01*
G01X9776Y14032D01*
G01X9630Y13886D01*
G01X9834Y13886D01*
G01X9930Y14132D02*
G01X9959Y14148D01*
G01X10003Y14192D01*
G01X10003Y13886D01*
G01X9331Y15192D02*
G01X9331Y14886D01*
G01X9331Y15192D02*
G01X9461Y15192D01*
G01X9505Y15176D01*
G01X9520Y15163D01*
G01X9534Y15132D01*
G01X9534Y15103D01*
G01X9520Y15075D01*
G01X9505Y15061D01*
G01X9461Y15046D01*
G01X9331Y15046D01*
G01X9432Y15046D02*
G01X9534Y14886D01*
G01X9630Y15192D02*
G01X9834Y14886D01*
G01X9834Y15192D02*
G01X9630Y14886D01*
G01X10017Y15192D02*
G01X9973Y15176D01*
G01X9944Y15132D01*
G01X9930Y15061D01*
G01X9930Y15017D01*
G01X9944Y14944D01*
G01X9973Y14901D01*
G01X10017Y14886D01*
G01X10046Y14886D01*
G01X10090Y14901D01*
G01X10119Y14944D01*
G01X10133Y15017D01*
G01X10133Y15061D01*
G01X10119Y15132D01*
G01X10090Y15176D01*
G01X10046Y15192D01*
G01X10017Y15192D01*
G01X9432Y16192D02*
G01X9432Y15886D01*
G01X9331Y16192D02*
G01X9534Y16192D01*
G01X9630Y16192D02*
G01X9834Y15886D01*
G01X9834Y16192D02*
G01X9630Y15886D01*
G01X10017Y16192D02*
G01X9973Y16176D01*
G01X9944Y16132D01*
G01X9930Y16061D01*
G01X9930Y16017D01*
G01X9944Y15944D01*
G01X9973Y15901D01*
G01X10017Y15886D01*
G01X10046Y15886D01*
G01X10090Y15901D01*
G01X10119Y15944D01*
G01X10133Y16017D01*
G01X10133Y16061D01*
G01X10119Y16132D01*
G01X10090Y16176D01*
G01X10046Y16192D01*
G01X10017Y16192D01*
G01X9331Y17192D02*
G01X9331Y16886D01*
G01X9331Y17192D02*
G01X9432Y17192D01*
G01X9476Y17177D01*
G01X9505Y17148D01*
G01X9520Y17119D01*
G01X9534Y17075D01*
G01X9534Y17003D01*
G01X9520Y16959D01*
G01X9505Y16930D01*
G01X9476Y16901D01*
G01X9432Y16886D01*
G01X9331Y16886D01*
G01X9645Y17119D02*
G01X9645Y17132D01*
G01X9659Y17163D01*
G01X9674Y17177D01*
G01X9703Y17192D01*
G01X9761Y17192D01*
G01X9790Y17177D01*
G01X9805Y17163D01*
G01X9819Y17132D01*
G01X9819Y17103D01*
G01X9805Y17075D01*
G01X9776Y17032D01*
G01X9630Y16886D01*
G01X9834Y16886D01*
G01X9944Y17119D02*
G01X9944Y17132D01*
G01X9959Y17163D01*
G01X9973Y17177D01*
G01X10003Y17192D01*
G01X10061Y17192D01*
G01X10090Y17177D01*
G01X10104Y17163D01*
G01X10119Y17132D01*
G01X10119Y17103D01*
G01X10104Y17075D01*
G01X10075Y17032D01*
G01X9930Y16886D01*
G01X10133Y16886D01*
G01X9331Y18192D02*
G01X9331Y17886D01*
G01X9331Y18192D02*
G01X9432Y18192D01*
G01X9476Y18177D01*
G01X9505Y18148D01*
G01X9520Y18119D01*
G01X9534Y18075D01*
G01X9534Y18003D01*
G01X9520Y17959D01*
G01X9505Y17930D01*
G01X9476Y17901D01*
G01X9432Y17886D01*
G01X9331Y17886D01*
G01X9645Y18119D02*
G01X9645Y18132D01*
G01X9659Y18163D01*
G01X9674Y18177D01*
G01X9703Y18192D01*
G01X9761Y18192D01*
G01X9790Y18177D01*
G01X9805Y18163D01*
G01X9819Y18132D01*
G01X9819Y18103D01*
G01X9805Y18075D01*
G01X9776Y18032D01*
G01X9630Y17886D01*
G01X9834Y17886D01*
G01X9959Y18192D02*
G01X10119Y18192D01*
G01X10032Y18075D01*
G01X10075Y18075D01*
G01X10104Y18061D01*
G01X10119Y18046D01*
G01X10133Y18003D01*
G01X10133Y17973D01*
G01X10119Y17930D01*
G01X10090Y17901D01*
G01X10046Y17886D01*
G01X10003Y17886D01*
G01X9959Y17901D01*
G01X9944Y17915D01*
G01X9930Y17944D01*
G54D22*
G01X23985Y9900D02*
G01X24414Y9900D01*
G01X23985Y9900D02*
G01X23985Y10084D01*
G01X24005Y10144D01*
G01X24026Y10165D01*
G01X24067Y10186D01*
G01X24108Y10186D01*
G01X24149Y10165D01*
G01X24169Y10144D01*
G01X24189Y10084D01*
G01X24189Y9900D01*
G01X24189Y10042D02*
G01X24414Y10186D01*
G01X24067Y10321D02*
G01X24046Y10361D01*
G01X23985Y10423D01*
G01X24414Y10423D01*
G01X21189Y6703D02*
G01X21189Y6275D01*
G01X21189Y6703D02*
G01X21373Y6703D01*
G01X21434Y6684D01*
G01X21455Y6663D01*
G01X21475Y6621D01*
G01X21475Y6580D01*
G01X21455Y6540D01*
G01X21434Y6519D01*
G01X21373Y6500D01*
G01X21189Y6500D01*
G01X21332Y6500D02*
G01X21475Y6275D01*
G01X21631Y6601D02*
G01X21631Y6621D01*
G01X21651Y6663D01*
G01X21672Y6684D01*
G01X21713Y6703D01*
G01X21794Y6703D01*
G01X21835Y6684D01*
G01X21856Y6663D01*
G01X21876Y6621D01*
G01X21876Y6580D01*
G01X21856Y6540D01*
G01X21815Y6478D01*
G01X21610Y6275D01*
G01X21897Y6275D01*
G01X21139Y5203D02*
G01X21139Y4775D01*
G01X21139Y5203D02*
G01X21323Y5203D01*
G01X21384Y5184D01*
G01X21405Y5163D01*
G01X21425Y5121D01*
G01X21425Y5080D01*
G01X21405Y5040D01*
G01X21384Y5019D01*
G01X21323Y5000D01*
G01X21139Y5000D01*
G01X21282Y5000D02*
G01X21425Y4775D01*
G01X21601Y5203D02*
G01X21826Y5203D01*
G01X21704Y5040D01*
G01X21765Y5040D01*
G01X21806Y5019D01*
G01X21826Y5000D01*
G01X21847Y4938D01*
G01X21847Y4896D01*
G01X21826Y4836D01*
G01X21785Y4794D01*
G01X21724Y4775D01*
G01X21663Y4775D01*
G01X21601Y4794D01*
G01X21581Y4815D01*
G01X21560Y4855D01*
G01X20639Y13803D02*
G01X20639Y13496D01*
G01X20659Y13436D01*
G01X20700Y13394D01*
G01X20762Y13375D01*
G01X20803Y13375D01*
G01X20864Y13394D01*
G01X20905Y13436D01*
G01X20925Y13496D01*
G01X20925Y13803D01*
G01X21265Y13803D02*
G01X21060Y13517D01*
G01X21367Y13517D01*
G01X21265Y13803D02*
G01X21265Y13375D01*
G01X20689Y18353D02*
G01X20689Y18046D01*
G01X20709Y17986D01*
G01X20750Y17944D01*
G01X20812Y17925D01*
G01X20853Y17925D01*
G01X20914Y17944D01*
G01X20955Y17986D01*
G01X20975Y18046D01*
G01X20975Y18353D01*
G01X21356Y18353D02*
G01X21151Y18353D01*
G01X21131Y18169D01*
G01X21151Y18190D01*
G01X21213Y18211D01*
G01X21274Y18211D01*
G01X21335Y18190D01*
G01X21376Y18150D01*
G01X21397Y18088D01*
G01X21397Y18046D01*
G01X21376Y17986D01*
G01X21335Y17944D01*
G01X21274Y17925D01*
G01X21213Y17925D01*
G01X21151Y17944D01*
G01X21131Y17965D01*
G01X21110Y18005D01*
G01X21196Y10451D02*
G01X21175Y10492D01*
G01X21134Y10534D01*
G01X21094Y10553D01*
G01X21012Y10553D01*
G01X20971Y10534D01*
G01X20930Y10492D01*
G01X20909Y10451D01*
G01X20889Y10390D01*
G01X20889Y10288D01*
G01X20909Y10226D01*
G01X20930Y10186D01*
G01X20971Y10144D01*
G01X21012Y10125D01*
G01X21094Y10125D01*
G01X21134Y10144D01*
G01X21175Y10186D01*
G01X21196Y10226D01*
G01X21331Y10471D02*
G01X21372Y10492D01*
G01X21433Y10553D01*
G01X21433Y10125D01*
G54D10*
G75*
G01X24065Y8688D02*
G03X24065Y8660I-1575J-14D01*
G01*
G75*
G01X16520Y2200D02*
G03X16520Y2200I-900J0D01*
G01*
G75*
G01X18520Y2200D02*
G03X18520Y2200I-900J0D01*
G01*
G54D21*
G75*
G01X16935Y19500D02*
G03X16935Y19500I-295J0D01*
G01*
G54D10*
G75*
G01X20240Y14000D02*
G03X20240Y14000I-300J0D01*
G01*

%LPD*%
G36*
G01X23671Y7606D02*
G01X21308Y7606D01*
G01X21336Y7580D01*
G01X21363Y7556D01*
G01X21392Y7531D01*
G01X21450Y7485D01*
G01X21510Y7441D01*
G01X21541Y7420D01*
G01X21572Y7400D01*
G01X21604Y7380D01*
G01X21636Y7361D01*
G01X21668Y7343D01*
G01X21734Y7309D01*
G01X21802Y7277D01*
G01X21836Y7263D01*
G01X21871Y7249D01*
G01X21906Y7236D01*
G01X21976Y7212D01*
G01X22012Y7201D01*
G01X22048Y7191D01*
G01X22084Y7182D01*
G01X22156Y7166D01*
G01X22193Y7159D01*
G01X22230Y7153D01*
G01X22304Y7143D01*
G01X22378Y7137D01*
G01X22415Y7135D01*
G01X22489Y7133D01*
G01X22527Y7134D01*
G01X22564Y7135D01*
G01X22601Y7137D01*
G01X22675Y7143D01*
G01X22749Y7153D01*
G01X22786Y7159D01*
G01X22822Y7166D01*
G01X22859Y7174D01*
G01X22895Y7182D01*
G01X22931Y7191D01*
G01X22967Y7201D01*
G01X23003Y7212D01*
G01X23073Y7236D01*
G01X23108Y7249D01*
G01X23143Y7263D01*
G01X23177Y7277D01*
G01X23245Y7309D01*
G01X23311Y7343D01*
G01X23343Y7361D01*
G01X23375Y7380D01*
G01X23407Y7400D01*
G01X23438Y7420D01*
G01X23469Y7441D01*
G01X23529Y7485D01*
G01X23587Y7531D01*
G01X23616Y7556D01*
G01X23643Y7580D01*
G01X23671Y7606D01*
G37*
M00*
M02*
