G04 Layer: TopSolderMaskLayer*
G04 EasyEDA v6.4.7, 2020-12-03T10:34:31+05:30*
G04 2fbe05cc312c45c2a44f13524b8984d0,b6e8962e620740079bb188d2402746ea,10*
G04 Gerber Generator version 0.2*
G04 Scale: 100 percent, Rotated: No, Reflected: No *
G04 Dimensions in inches *
G04 leading zeros omitted , absolute positions ,2 integer and 4 decimal *
%FSLAX24Y24*%
%MOIN*%
G90*
D02*

%ADD24C,0.082000*%
%ADD25C,0.082020*%
%ADD26C,0.126110*%
%ADD28C,0.074929*%
%ADD29C,0.068000*%
%ADD30C,0.070992*%

%LPD*%
G54D24*
G01X23239Y2396D02*
G01X23239Y2003D01*
G54D25*
G01X24239Y2396D02*
G01X24239Y2003D01*
G54D26*
G01X15639Y2200D03*
G01X17599Y2200D03*
G36*
G01X17264Y19125D02*
G01X17264Y19875D01*
G01X18014Y19875D01*
G01X18014Y19125D01*
G01X17264Y19125D01*
G37*
G54D28*
G01X15639Y19500D03*
G01X14639Y19500D03*
G36*
G01X571Y17557D02*
G01X396Y17732D01*
G01X396Y17980D01*
G01X571Y18155D01*
G01X818Y18155D01*
G01X993Y17980D01*
G01X993Y17732D01*
G01X818Y17557D01*
G01X571Y17557D01*
G37*
G36*
G01X571Y16557D02*
G01X396Y16732D01*
G01X396Y16980D01*
G01X571Y17155D01*
G01X818Y17155D01*
G01X993Y16980D01*
G01X993Y16732D01*
G01X818Y16557D01*
G01X571Y16557D01*
G37*
G36*
G01X571Y15557D02*
G01X396Y15732D01*
G01X396Y15980D01*
G01X571Y16155D01*
G01X818Y16155D01*
G01X993Y15980D01*
G01X993Y15732D01*
G01X818Y15557D01*
G01X571Y15557D01*
G37*
G36*
G01X571Y14557D02*
G01X396Y14732D01*
G01X396Y14980D01*
G01X571Y15155D01*
G01X818Y15155D01*
G01X993Y14980D01*
G01X993Y14732D01*
G01X818Y14557D01*
G01X571Y14557D01*
G37*
G36*
G01X571Y13557D02*
G01X396Y13732D01*
G01X396Y13980D01*
G01X571Y14155D01*
G01X818Y14155D01*
G01X993Y13980D01*
G01X993Y13732D01*
G01X818Y13557D01*
G01X571Y13557D01*
G37*
G36*
G01X571Y12557D02*
G01X396Y12732D01*
G01X396Y12980D01*
G01X571Y13155D01*
G01X818Y13155D01*
G01X993Y12980D01*
G01X993Y12732D01*
G01X818Y12557D01*
G01X571Y12557D01*
G37*
G36*
G01X571Y11557D02*
G01X396Y11732D01*
G01X396Y11980D01*
G01X571Y12155D01*
G01X818Y12155D01*
G01X993Y11980D01*
G01X993Y11732D01*
G01X818Y11557D01*
G01X571Y11557D01*
G37*
G36*
G01X571Y10557D02*
G01X396Y10732D01*
G01X396Y10980D01*
G01X571Y11155D01*
G01X818Y11155D01*
G01X993Y10980D01*
G01X993Y10732D01*
G01X818Y10557D01*
G01X571Y10557D01*
G37*
G36*
G01X571Y9557D02*
G01X396Y9732D01*
G01X396Y9980D01*
G01X571Y10155D01*
G01X818Y10155D01*
G01X993Y9980D01*
G01X993Y9732D01*
G01X818Y9557D01*
G01X571Y9557D01*
G37*
G36*
G01X571Y8557D02*
G01X396Y8732D01*
G01X396Y8980D01*
G01X571Y9155D01*
G01X818Y9155D01*
G01X993Y8980D01*
G01X993Y8732D01*
G01X818Y8557D01*
G01X571Y8557D01*
G37*
G36*
G01X571Y7557D02*
G01X396Y7732D01*
G01X396Y7980D01*
G01X571Y8155D01*
G01X818Y8155D01*
G01X993Y7980D01*
G01X993Y7732D01*
G01X818Y7557D01*
G01X571Y7557D01*
G37*
G36*
G01X571Y6557D02*
G01X396Y6732D01*
G01X396Y6980D01*
G01X571Y7155D01*
G01X818Y7155D01*
G01X993Y6980D01*
G01X993Y6732D01*
G01X818Y6557D01*
G01X571Y6557D01*
G37*
G36*
G01X571Y5557D02*
G01X396Y5732D01*
G01X396Y5980D01*
G01X571Y6155D01*
G01X818Y6155D01*
G01X993Y5980D01*
G01X993Y5732D01*
G01X818Y5557D01*
G01X571Y5557D01*
G37*
G36*
G01X571Y4557D02*
G01X396Y4732D01*
G01X396Y4980D01*
G01X571Y5155D01*
G01X818Y5155D01*
G01X993Y4980D01*
G01X993Y4732D01*
G01X818Y4557D01*
G01X571Y4557D01*
G37*
G36*
G01X571Y3557D02*
G01X396Y3732D01*
G01X396Y3980D01*
G01X571Y4155D01*
G01X818Y4155D01*
G01X993Y3980D01*
G01X993Y3732D01*
G01X818Y3557D01*
G01X571Y3557D01*
G37*
G36*
G01X10571Y17557D02*
G01X10396Y17732D01*
G01X10396Y17980D01*
G01X10571Y18155D01*
G01X10818Y18155D01*
G01X10993Y17980D01*
G01X10993Y17732D01*
G01X10818Y17557D01*
G01X10571Y17557D01*
G37*
G36*
G01X10571Y16557D02*
G01X10396Y16732D01*
G01X10396Y16980D01*
G01X10571Y17155D01*
G01X10818Y17155D01*
G01X10993Y16980D01*
G01X10993Y16732D01*
G01X10818Y16557D01*
G01X10571Y16557D01*
G37*
G36*
G01X10571Y15557D02*
G01X10396Y15732D01*
G01X10396Y15980D01*
G01X10571Y16155D01*
G01X10818Y16155D01*
G01X10993Y15980D01*
G01X10993Y15732D01*
G01X10818Y15557D01*
G01X10571Y15557D01*
G37*
G36*
G01X10571Y14557D02*
G01X10396Y14732D01*
G01X10396Y14980D01*
G01X10571Y15155D01*
G01X10818Y15155D01*
G01X10993Y14980D01*
G01X10993Y14732D01*
G01X10818Y14557D01*
G01X10571Y14557D01*
G37*
G36*
G01X10571Y13557D02*
G01X10396Y13732D01*
G01X10396Y13980D01*
G01X10571Y14155D01*
G01X10818Y14155D01*
G01X10993Y13980D01*
G01X10993Y13732D01*
G01X10818Y13557D01*
G01X10571Y13557D01*
G37*
G36*
G01X10571Y12557D02*
G01X10396Y12732D01*
G01X10396Y12980D01*
G01X10571Y13155D01*
G01X10818Y13155D01*
G01X10993Y12980D01*
G01X10993Y12732D01*
G01X10818Y12557D01*
G01X10571Y12557D01*
G37*
G36*
G01X10571Y11557D02*
G01X10396Y11732D01*
G01X10396Y11980D01*
G01X10571Y12155D01*
G01X10818Y12155D01*
G01X10993Y11980D01*
G01X10993Y11732D01*
G01X10818Y11557D01*
G01X10571Y11557D01*
G37*
G36*
G01X10571Y10557D02*
G01X10396Y10732D01*
G01X10396Y10980D01*
G01X10571Y11155D01*
G01X10818Y11155D01*
G01X10993Y10980D01*
G01X10993Y10732D01*
G01X10818Y10557D01*
G01X10571Y10557D01*
G37*
G36*
G01X10571Y9557D02*
G01X10396Y9732D01*
G01X10396Y9980D01*
G01X10571Y10155D01*
G01X10818Y10155D01*
G01X10993Y9980D01*
G01X10993Y9732D01*
G01X10818Y9557D01*
G01X10571Y9557D01*
G37*
G36*
G01X10571Y8557D02*
G01X10396Y8732D01*
G01X10396Y8980D01*
G01X10571Y9155D01*
G01X10818Y9155D01*
G01X10993Y8980D01*
G01X10993Y8732D01*
G01X10818Y8557D01*
G01X10571Y8557D01*
G37*
G36*
G01X10571Y7557D02*
G01X10396Y7732D01*
G01X10396Y7980D01*
G01X10571Y8155D01*
G01X10818Y8155D01*
G01X10993Y7980D01*
G01X10993Y7732D01*
G01X10818Y7557D01*
G01X10571Y7557D01*
G37*
G36*
G01X10571Y6557D02*
G01X10396Y6732D01*
G01X10396Y6980D01*
G01X10571Y7155D01*
G01X10818Y7155D01*
G01X10993Y6980D01*
G01X10993Y6732D01*
G01X10818Y6557D01*
G01X10571Y6557D01*
G37*
G36*
G01X10571Y5557D02*
G01X10396Y5732D01*
G01X10396Y5980D01*
G01X10571Y6155D01*
G01X10818Y6155D01*
G01X10993Y5980D01*
G01X10993Y5732D01*
G01X10818Y5557D01*
G01X10571Y5557D01*
G37*
G36*
G01X10571Y4557D02*
G01X10396Y4732D01*
G01X10396Y4980D01*
G01X10571Y5155D01*
G01X10818Y5155D01*
G01X10993Y4980D01*
G01X10993Y4732D01*
G01X10818Y4557D01*
G01X10571Y4557D01*
G37*
G36*
G01X10571Y3557D02*
G01X10396Y3732D01*
G01X10396Y3980D01*
G01X10571Y4155D01*
G01X10818Y4155D01*
G01X10993Y3980D01*
G01X10993Y3732D01*
G01X10818Y3557D01*
G01X10571Y3557D01*
G37*
G54D24*
G01X25089Y7100D03*
G01X25089Y10100D03*
G01X22189Y5750D03*
G01X25189Y5750D03*
G01X22189Y4450D03*
G01X25189Y4450D03*
G54D29*
G01X23717Y14200D03*
G01X23717Y12200D03*
G01X23767Y19150D03*
G01X23767Y17150D03*
G54D30*
G01X22489Y8000D03*
G01X22489Y9378D03*
M00*
M02*
